<svg xmlns="http://www.w3.org/2000/svg" xmlns:xlink="http://www.w3.org/1999/xlink" width="120" height="120" viewBox="0 0 120 104">
    <defs>
        <path id="a" d="M119.503.282H0v75.786h119.503z"/>
    </defs>
    <g fill="none" fill-rule="evenodd" opacity=".2">
        <path fill="#000" fill-rule="nonzero" d="M24.94 29.42l30.487 22.253L97.614 36.94 63.835 17.513 24.94 29.42zm30.178 26.198c-.39 0-.775-.122-1.098-.358L19.734 30.234a1.863 1.863 0 0 1 .553-3.287l43.23-13.233a1.867 1.867 0 0 1 1.475.166l38.012 21.86a1.864 1.864 0 0 1-.315 3.375l-46.956 16.4c-.2.07-.407.103-.615.103z"/>
        <g transform="translate(0 .463)">
            <mask id="b" fill="#fff">
                <use xlink:href="#a"/>
            </mask>
            <path fill="#000" fill-rule="nonzero" d="M55.117 51.429a1.86 1.86 0 0 1 1.469.715l15.51 19.818 40.97-16.106-12.518-17.895a1.863 1.863 0 0 1 .3-2.469l13.556-11.875L84.93 7.536l-20.092 9.19a1.862 1.862 0 0 1-2.014-.302l-13.7-12.202-36.65 10.635 9.813 12.244a1.864 1.864 0 0 1-.451 2.735L5.08 40.534l30.617 24.057L54.05 51.765a1.857 1.857 0 0 1 1.066-.336m16.368 24.639c-.56 0-1.106-.254-1.467-.715L54.738 55.83 36.7 68.437a1.862 1.862 0 0 1-2.219-.063L.712 41.842a1.862 1.862 0 0 1 .15-3.035l17.22-10.995-10.26-12.801a1.865 1.865 0 0 1 .935-2.955L49.073.356a1.862 1.862 0 0 1 1.758.398l13.561 12.078 19.835-9.074a1.86 1.86 0 0 1 1.667.06l32.638 17.805a1.866 1.866 0 0 1 .335 3.037L104.56 37.194l12.915 18.463a1.864 1.864 0 0 1-.845 2.803L72.167 75.938c-.222.087-.453.13-.682.13" mask="url(#b)"/>
        </g>
        <path fill="#000" fill-rule="nonzero" d="M55.204 103.272c-.417 0-.828-.14-1.164-.409L19.67 75.371a1.86 1.86 0 0 1-.7-1.455V55.991a1.863 1.863 0 1 1 3.726 0v17.03l32.8 26.235 44.716-19.176V63.444a1.863 1.863 0 1 1 3.726 0V81.31c0 .745-.443 1.419-1.128 1.712l-46.872 20.1a1.86 1.86 0 0 1-.734.15"/>
        <path fill="#000" fill-rule="nonzero" d="M55.119 103.32a1.863 1.863 0 0 1-1.864-1.863V53.755a1.863 1.863 0 1 1 3.727 0v47.702c0 1.029-.834 1.863-1.863 1.863M64.063 51.146a1.863 1.863 0 0 1-1.864-1.863v-32.05a1.863 1.863 0 1 1 3.727 0v32.05c0 1.029-.834 1.863-1.863 1.863"/>
        <path d="M0-8h120v120H0z"/>
    </g>
</svg>
