<svg id="Layer_1" enable-background="new 0 0 256 256" height="512" viewBox="0 0 256 256" width="512" xmlns="http://www.w3.org/2000/svg"><g><g><g><path d="m128.476 222.072h-83.567c-9.104 0-16.484-7.38-16.484-16.484v-170.675c0-9.104 7.38-16.484 16.484-16.484h83.567c9.104 0 16.484 7.38 16.484 16.484v170.675c.001 9.103-7.38 16.484-16.484 16.484z" fill="#63bce7"/><path d="m38.185 205.587v-170.674c0-9.104 7.38-16.484 16.484-16.484h-9.76c-9.104 0-16.484 7.38-16.484 16.484v170.675c0 9.104 7.38 16.484 16.484 16.484h9.76c-9.104 0-16.484-7.381-16.484-16.485z" fill="#6377e7"/><path d="m135.201 205.587v-170.674c0-9.104-7.38-16.484-16.484-16.484h9.76c9.104 0 16.484 7.38 16.484 16.484v170.675c0 9.104-7.38 16.484-16.484 16.484h-9.76c9.104 0 16.484-7.381 16.484-16.485z" fill="#63e2e7"/><path d="m28.425 205.592c0 9.102 7.378 16.48 16.48 16.48h83.576c9.102 0 16.48-7.378 16.48-16.48v-9.738h-116.536z" fill="#f46275"/><path d="m38.185 205.592v-9.738h-9.76v9.738c0 9.102 7.378 16.48 16.48 16.48h9.76c-9.102 0-16.48-7.379-16.48-16.48z" fill="#f43075"/><path d="m135.201 205.592v-9.738h9.76v9.738c0 9.102-7.378 16.48-16.48 16.48h-9.76c9.102 0 16.48-7.379 16.48-16.48z" fill="#f48875"/><path d="m144.961 34.908c0-9.102-7.378-16.48-16.48-16.48h-83.576c-9.102 0-16.48 7.378-16.48 16.48v9.738h116.536z" fill="#f46275"/><path d="m54.665 18.428h-9.76c-9.102 0-16.48 7.378-16.48 16.48v9.738h9.76v-9.738c0-9.101 7.378-16.48 16.48-16.48z" fill="#f43075"/><path d="m118.721 18.428h9.76c9.102 0 16.48 7.378 16.48 16.48v9.738h-9.76v-9.738c0-9.101-7.378-16.48-16.48-16.48z" fill="#f48875"/><g fill="#f8af23"><path d="m65.841 28.595h41.2v5.886h-41.2z"/><circle cx="86.146" cy="209.417" r="5.003"/></g></g><path d="m42.953 59.149h87.479v78.667h-87.479z" fill="#9e9e9e"/><path d="m142.035 95.687-12.862 23.199-3.405-9.364c-3.116-8.568-10.914-14.556-19.996-15.353l-8.319-.73h-7.245-7.245l-8.319.73c-9.082.797-16.88 6.785-19.996 15.353l-10.288 28.294h45.849 41.925c2.406 0 4.608-1.354 5.693-3.502l19.521-38.627z" fill="#f46275"/><path d="m90.208 100.928c-4.001 0-7.245-3.244-7.245-7.245v-11.791c0-4.001 3.244-7.245 7.245-7.245 4.001 0 7.245 3.244 7.245 7.245v11.791c0 4.001-3.243 7.245-7.245 7.245z" fill="#f8af23"/><circle cx="72.729" cy="61.362" fill="#f8af23" r="5.908"/><circle cx="112.212" cy="61.362" fill="#f8af23" r="5.908"/><circle cx="200.316" cy="53.541" fill="#f8d323" r="9.596"/><path d="m194.676 76.097-22.445-11.779v-21.564l22.445-11.778z" fill="#63bce7"/><g><path d="m194.676 30.976-9.759 5.121v34.878l9.759 5.122z" fill="#63e2e7"/></g><path d="m194.676 30.976h5.64v45.121h-5.64z" fill="#f48875"/><path d="m153.354 42.754h18.877v21.573h-18.877z" fill="#f8af23"/><path d="m144.961 48.141h8.393v10.791h-8.393z" fill="#f46275"/><path d="m158.629 64.327h8.327v33.752h-8.327z" fill="#63bce7"/><g fill="#f8af23"><path d="m162.155 74.862c0 1.444 1.171 2.615 2.615 2.615h4.371c1.444 0 2.615-1.171 2.615-2.615 0-1.444-1.171-2.615-2.615-2.615h-4.371c-1.444 0-2.615 1.171-2.615 2.615z"/><path d="m162.155 80.093c0 1.444 1.171 2.615 2.615 2.615h4.371c1.444 0 2.615-1.171 2.615-2.615 0-1.444-1.171-2.615-2.615-2.615h-4.371c-1.444-.001-2.615 1.17-2.615 2.615z"/><path d="m162.155 85.324c0 1.444 1.171 2.615 2.615 2.615h4.371c1.444 0 2.615-1.171 2.615-2.615 0-1.444-1.171-2.615-2.615-2.615h-4.371c-1.444-.001-2.615 1.17-2.615 2.615z"/><path d="m162.155 90.554c0 1.444 1.171 2.615 2.615 2.615h4.371c1.444 0 2.615-1.171 2.615-2.615 0-1.444-1.171-2.615-2.615-2.615h-4.371c-1.444 0-2.615 1.171-2.615 2.615z"/><path d="m93.106 85.062c-11.207 0-20.377-9.17-20.377-20.377v-9.159c0-11.207 9.17-20.377 20.377-20.377 11.207 0 20.377 9.17 20.377 20.377v9.159c.001 11.207-9.169 20.377-20.377 20.377z"/></g><path d="m72.729 61.362h4.4l7.125-11.441 29.199 4.499s8.235 2.063 8.235-9.973c.029-.213.03-4.897.023-9.702-.008-5.806-4.717-10.508-10.523-10.508h-1.016c-2.401 0-4.347 1.946-4.347 4.347h-17.42c-10.296 0-18.643 8.347-18.643 18.643 0 2.082.549 4.126 1.592 5.928l1.373 2.372v5.835z" fill="#707070"/><path d="m142.034 95.687h16.595v-25.344c0-1.363-1.105-2.467-2.467-2.467s-2.467 1.105-2.467 2.467v4.124l-3.202 6.028z" fill="#f8af23"/><path d="m60.613 151.367c0-2.438-1.977-4.415-4.415-4.415s-4.415 1.977-4.415 4.415c0-2.438-1.977-4.415-4.415-4.415s-4.415 1.977-4.415 4.415c0 1.329.588 2.519 1.516 3.329l7.313 7.32 7.313-7.32c.93-.81 1.518-2.001 1.518-3.329z" fill="#f46275"/><path d="m83.225 159.708c.956-1.356 1.519-3.009 1.519-4.795 0-4.604-3.732-8.337-8.337-8.337-4.604 0-8.337 3.732-8.337 8.337s3.732 8.337 8.337 8.337c1.79 0 3.448-.566 4.806-1.527l2.513.832z" fill="#f8af23"/></g><g fill="#321f7a"><path d="m86.146 202.915c-3.586 0-6.503 2.917-6.503 6.503s2.917 6.503 6.503 6.503 6.503-2.917 6.503-6.503-2.917-6.503-6.503-6.503zm0 10.005c-1.932 0-3.503-1.571-3.503-3.503s1.571-3.503 3.503-3.503 3.503 1.571 3.503 3.503-1.571 3.503-3.503 3.503z"/><circle cx="88.066" cy="62.536" r="1.701"/><circle cx="104.604" cy="62.536" r="1.701"/><path d="m96.335 71.927c.829 0 1.5-.671 1.5-1.5v-5.102c0-.829-.671-1.5-1.5-1.5s-1.5.671-1.5 1.5v5.102c0 .828.671 1.5 1.5 1.5z"/><path d="m98.707 74.977c-3.055.493-5.326-1.892-5.369-1.938-.56-.608-1.503-.65-2.114-.094-.613.558-.657 1.506-.1 2.119.122.134 2.765 2.981 6.728 2.981.429 0 .874-.033 1.332-.107.818-.132 1.375-.901 1.243-1.719-.132-.817-.902-1.374-1.72-1.242z"/><path d="m93.38 58.434c0-.829-.671-1.5-1.5-1.5h-7.628c-.829 0-1.5.671-1.5 1.5s.671 1.5 1.5 1.5h7.628c.828 0 1.5-.671 1.5-1.5z"/><path d="m109.917 58.434c0-.829-.671-1.5-1.5-1.5h-7.627c-.829 0-1.5.671-1.5 1.5s.671 1.5 1.5 1.5h7.627c.829 0 1.5-.671 1.5-1.5z"/><path d="m89.767 109.523c-.829 0-1.5.671-1.5 1.5v20.045c0 .829.671 1.5 1.5 1.5s1.5-.671 1.5-1.5v-20.045c0-.829-.672-1.5-1.5-1.5z"/><path d="m214.022 55.036h12.459c.829 0 1.5-.671 1.5-1.5s-.671-1.5-1.5-1.5h-12.459c-.829 0-1.5.671-1.5 1.5s.672 1.5 1.5 1.5z"/><path d="m215.849 47.094c.271 0 .545-.073.792-.228l8.81-5.498c.703-.438.917-1.364.479-2.066-.438-.703-1.362-.917-2.066-.479l-8.81 5.498c-.703.438-.917 1.364-.479 2.066.284.457.773.707 1.274.707z"/><path d="m216.641 60.205c-.704-.439-1.628-.224-2.066.479s-.225 1.628.479 2.066l8.81 5.498c.247.154.521.228.792.228.5 0 .99-.25 1.274-.706.438-.703.225-1.628-.479-2.066z"/><path d="m43.442 155.79 7.28 7.286c.281.282.663.44 1.061.44s.78-.158 1.061-.44l7.279-7.286c1.265-1.123 1.989-2.732 1.989-4.423 0-3.261-2.653-5.915-5.915-5.915-1.753 0-3.331.767-4.415 1.982-1.084-1.216-2.662-1.982-4.415-1.982-3.262 0-5.915 2.653-5.915 5.915.001 1.691.726 3.3 1.99 4.423zm3.926-7.338c1.607 0 2.915 1.308 2.915 2.915 0 .829.671 1.5 1.5 1.5s1.5-.671 1.5-1.5c0-1.607 1.308-2.915 2.915-2.915s2.915 1.308 2.915 2.915c0 .842-.365 1.643-1.002 2.198-.026.022-.051.046-.076.071l-6.252 6.258-6.252-6.258c-.024-.024-.05-.048-.076-.071-.637-.555-1.002-1.356-1.002-2.198 0-1.607 1.308-2.915 2.915-2.915z"/><path d="m76.407 164.75c1.781 0 3.5-.474 5.018-1.377l1.83.606c.501.167 1.053.058 1.452-.289.4-.345.588-.875.497-1.395l-.398-2.262c.943-1.542 1.438-3.298 1.438-5.12 0-5.424-4.413-9.836-9.836-9.836s-9.836 4.413-9.836 9.836 4.411 9.837 9.835 9.837zm0-16.673c3.77 0 6.836 3.067 6.836 6.836 0 1.416-.431 2.774-1.245 3.931-.23.326-.32.73-.251 1.124l.066.374-.128-.042c-.453-.15-.948-.076-1.337.199-1.159.819-2.521 1.252-3.94 1.252-3.77 0-6.836-3.067-6.836-6.836s3.066-6.838 6.835-6.838z"/><path d="m130.433 170.25h-87.48c-.829 0-1.5.671-1.5 1.5s.671 1.5 1.5 1.5h87.479c.829 0 1.5-.671 1.5-1.5s-.671-1.5-1.499-1.5z"/><path d="m94.333 179.985h-51.38c-.829 0-1.5.671-1.5 1.5s.671 1.5 1.5 1.5h51.38c.829 0 1.5-.671 1.5-1.5s-.671-1.5-1.5-1.5z"/><path d="m27.323 236.072h-18.003c-.829 0-1.5.671-1.5 1.5s.671 1.5 1.5 1.5h18.003c.829 0 1.5-.671 1.5-1.5s-.671-1.5-1.5-1.5z"/><path d="m246.68 236.072h-18.003c-.829 0-1.5.671-1.5 1.5s.671 1.5 1.5 1.5h18.003c.829 0 1.5-.671 1.5-1.5s-.671-1.5-1.5-1.5z"/><path d="m218.479 236.072h-180.958c-.829 0-1.5.671-1.5 1.5s.671 1.5 1.5 1.5h180.959c.829 0 1.5-.671 1.5-1.5s-.672-1.5-1.501-1.5z"/><path d="m9.32 223.572h35.585.004 83.567.004 118.2c.829 0 1.5-.671 1.5-1.5s-.671-1.5-1.5-1.5h-108.276c4.85-3.224 8.057-8.732 8.057-14.98v-.004-9.734-75.228c0-.02-.005-.038-.006-.058l10.937-21.641c.27.394.723.653 1.237.653h8.327c.829 0 1.5-.671 1.5-1.5v-3.41h.686c2.269 0 4.115-1.846 4.115-4.116 0-.998-.371-1.902-.965-2.615.593-.713.965-1.617.965-2.615s-.371-1.902-.965-2.616c.593-.713.965-1.617.965-2.615s-.371-1.902-.965-2.615c.593-.713.965-1.617.965-2.616 0-2.269-1.846-4.115-4.115-4.115h-.686v-4.919h3.423l22.101 11.598v-.007c.209.11.444.179.697.179h5.64c.829 0 1.5-.671 1.5-1.5v-11.575c5.42-.74 9.596-5.458 9.596-10.982 0-5.549-4.166-10.243-9.596-10.983v-11.582c0-.829-.671-1.5-1.5-1.5h-5.64c-.253 0-.488.069-.697.179v-.007l-22.118 11.606h-18.508c-.829 0-1.5.671-1.5 1.5v3.887h-5.393v-1.994-9.734-.004c0-9.914-8.066-17.98-17.98-17.98h-.004-83.572c-9.915 0-17.98 8.066-17.98 17.98v9.739 151.206 9.734.004c0 6.248 3.207 11.756 8.057 14.98h-25.662c-.829 0-1.5.671-1.5 1.5s.671 1.5 1.5 1.5zm199.093-170.031c0 3.894-2.84 7.246-6.596 7.956v-15.909c3.762.709 6.596 4.042 6.596 7.953zm-12.237-21.065h2.64v42.121h-2.64zm-151.267 188.096c-8.262 0-14.984-6.722-14.984-14.984v-8.234h113.536v8.234c0 8.262-6.722 14.984-14.984 14.984zm98.552-26.219h-113.536v-148.206h38.393c-.019.36-.055.715-.055 1.079 0 2.343.621 4.653 1.794 6.679l.26.45c-1.723.585-3.131 1.769-4.009 3.294h-23.355c-.829 0-1.5.671-1.5 1.5v78.667c0 .829.671 1.5 1.5 1.5h1.406 15.53.003.003 59.743.003.003 10.789 1.701c2.989 0 5.684-1.657 7.032-4.325l4.295-8.499zm-69.398-161.373h-6.722v-2.886h10.524c-1.34.827-2.588 1.788-3.696 2.896-.036-.001-.07-.01-.106-.01zm14.121-2.885h1.582c.038 0-.037.003 0 0l16.059-.011c.829 0 1.5-.671 1.5-1.5 0-1.57 1.277-2.847 2.847-2.847h1.016c4.968 0 9.016 4.042 9.022 9.01.011 7.833-.007 9.366-.009 9.496-.009.068-.014.136-.014.205 0 3.723-.855 6.368-2.472 7.65-1.713 1.359-3.887.87-3.898.867-.045-.011-.091-.021-.136-.027l-29.199-4.499c-.594-.09-1.184.179-1.502.689l-6.684 10.734h-2.067v-1.428-2.909c0-.264-.07-.523-.202-.751l-1.374-2.372c-.91-1.57-1.391-3.36-1.391-5.176.001-9.378 7.572-17.011 16.922-17.131zm34.946 16.052h20.331v1.994 10.791 31.109l-2.737 4.916c-.001.002-.002.005-.003.007l-8.788 15.852v-51.667c0-.829-.671-1.5-1.5-1.5h-11.823c-.416-.719-.952-1.359-1.587-1.901.822-.231 1.689-.622 2.513-1.265 2.124-1.658 3.329-4.459 3.594-8.336zm30.224 19.68h3.775v.682c-.311-.079-.631-.133-.966-.133-2.188 0-3.967 1.78-3.967 3.967v3.75l-3.012 5.671-2.722 4.888v-24.22h5.393v3.896c-.001.828.67 1.499 1.499 1.499zm3.775 28.36h-12.542l7.232-12.988 3.202-6.028c.115-.217.175-.458.175-.704v-4.124c0-.533.434-.967.967-.967.531 0 .964.432.966.962zm-75.666-2.122-6.95.61c-9.623.845-17.973 7.257-21.275 16.335l-8.785 24.159v-72.52h20.903c-.022.235-.035.472-.035.712 0 3.635 2.696 6.771 6.28 7.32 1.131 6.098 4.796 11.313 9.861 14.511v8.873zm33.52-27.38v-6.74c1.011.817 1.636 2.051 1.636 3.417 0 1.362-.633 2.596-1.639 3.413.001-.03.003-.06.003-.09zm-21.877 18.877c-10.409 0-18.877-8.468-18.877-18.877v-1.823h2.9c.518 0 1-.267 1.273-.707l6.601-10.601 26.979 4.156v8.974c.001 10.41-8.467 18.878-18.876 18.878zm-21.877-25.128v2.928 3.323c0 .276.011.55.021.824-1.715-.616-2.928-2.267-2.928-4.147 0-1.9 1.183-3.529 2.907-4.145zm13.234 26.345c2.653 1.146 5.575 1.783 8.644 1.783.965 0 1.914-.07 2.847-.191v7.312c0 3.168-2.578 5.746-5.746 5.746s-5.745-2.578-5.745-5.746zm14.491.983c8.092-2.248 14.309-9.037 15.722-17.44 2.934-1.037 4.944-3.799 4.944-6.96 0-.242-.034-.476-.057-.712h9.37v53.185l-1.754-4.824c-3.301-9.078-11.652-15.49-21.274-16.335l-6.95-.61v-6.304zm37.534 47.875c-.835 1.652-2.503 2.679-4.354 2.679h-1.701-9.741l-6.497-17.867c-.283-.779-1.145-1.181-1.922-.897-.778.283-1.18 1.144-.897 1.922l6.125 16.842h-55.467l6.124-16.842c.283-.779-.119-1.639-.897-1.922-.78-.285-1.64.118-1.922.897l-6.497 17.867h-12.34l9.557-26.281c2.904-7.987 10.251-13.628 18.718-14.372l6.808-.598c.667 4.166 4.274 7.362 8.625 7.362s7.959-3.197 8.625-7.362l6.808.597c8.466.743 15.813 6.385 18.718 14.372l3.405 9.363c.201.552.706.937 1.292.982.593.052 1.145-.253 1.43-.768l12.433-22.427h11.991zm32.654-41.967h-4.372c-.615 0-1.115-.5-1.115-1.116 0-.615.5-1.115 1.115-1.115h4.372c.615 0 1.115.5 1.115 1.115s-.501 1.116-1.115 1.116zm1.115-11.577c0 .615-.5 1.115-1.115 1.115h-4.372c-.615 0-1.115-.5-1.115-1.115s.5-1.115 1.115-1.115h4.372c.614 0 1.115.5 1.115 1.115zm0 5.231c0 .615-.5 1.115-1.115 1.115h-4.372c-.615 0-1.115-.5-1.115-1.115s.5-1.116 1.115-1.116h4.372c.614 0 1.115.5 1.115 1.116zm0-10.462c0 .615-.5 1.116-1.115 1.116h-4.372c-.615 0-1.115-.5-1.115-1.116 0-.615.5-1.115 1.115-1.115h4.372c.614 0 1.115.5 1.115 1.115zm-4.801-4.115h-.686c-2.269 0-4.115 1.846-4.115 4.115 0 .998.371 1.902.965 2.616-.593.713-.965 1.617-.965 2.615s.371 1.902.965 2.615c-.593.713-.965 1.617-.965 2.616 0 .998.371 1.902.965 2.615-.593.713-.965 1.617-.965 2.615 0 2.27 1.846 4.116 4.115 4.116h.686v1.909h-5.327v-.882c0-.003.001-.006.001-.01v-25.344c0-.003-.001-.006-.001-.01v-4.506h5.327zm27.72 2.869-19.445-10.205v-19.75l19.445-10.204zm-38.322-29.362h15.877v18.573h-3.775-8.327-3.775v-3.896-10.79zm-3 5.387v7.791h-5.393v-7.791zm-121.929-14.733c0-8.26 6.72-14.98 14.98-14.98h83.571c8.262 0 14.984 6.722 14.984 14.984v8.234h-20.254c.008-1.278.011-3.704.004-8.404-.009-6.62-5.402-12.006-12.022-12.006h-1.016c-2.706 0-4.988 1.848-5.652 4.347h-16.114c-.075 0-.147.01-.222.011h-22.343c-.829 0-1.5.671-1.5 1.5v5.886c0 .829.671 1.5 1.5 1.5h5.862c-1.442 2.135-2.485 4.559-3.023 7.167h-38.755z"/></g></g></svg>