<svg id="Layer_1" enable-background="new 0 0 256 256" height="512" viewBox="0 0 256 256" width="512" xmlns="http://www.w3.org/2000/svg"><g><path d="m32.035 172.963c-7.535 0-13.665-6.13-13.665-13.665v-123.776c0-7.535 6.13-13.665 13.665-13.665h191.931c7.535 0 13.665 6.13 13.665 13.665v123.776c0 7.535-6.13 13.665-13.665 13.665z" fill="#63bce7"/><path d="m229.221 30.266v129.008c0 2.916-2.364 5.28-5.28 5.28h-191.882c-2.916 0-5.28-2.364-5.28-5.28v-129.008z" fill="#f46275"/><path d="m36.539 159.274v-129.008h-9.76v129.008c0 2.916 2.364 5.28 5.28 5.28h9.76c-2.916 0-5.28-2.364-5.28-5.28z" fill="#f43075"/><path d="m219.462 159.274v-129.008h9.76v129.008c0 2.916-2.364 5.28-5.28 5.28h-9.76c2.916 0 5.28-2.364 5.28-5.28z" fill="#f48875"/><path d="m128 172.963h-119.333l3.053 7.024c2.751 6.329 8.995 10.423 15.896 10.423h100.384 100.385c6.901 0 13.145-4.094 15.896-10.423l3.053-7.024z" fill="#9e9e9e"/><path d="m21.479 179.987-3.053-7.024h-9.76l3.053 7.024c2.751 6.329 8.995 10.423 15.896 10.423h9.76c-6.901 0-13.145-4.094-15.896-10.423z" fill="#707070"/><path d="m234.521 179.987 3.053-7.024h9.76l-3.053 7.024c-2.751 6.329-8.995 10.423-15.896 10.423h-9.76c6.902 0 13.145-4.094 15.896-10.423z" fill="#cecece"/><path d="m82.442 172.963 4.22 5.388c1.649 2.106 4.175 3.336 6.85 3.336h68.975c2.675 0 5.201-1.23 6.85-3.336l4.221-5.388z" fill="#f8af23"/><path d="m14.846 218.643c0-21.156 17.151-38.307 38.307-38.307s38.307 17.151 38.307 38.307z" fill="#63bce7"/><path d="m58.033 180.656c-1.599-.203-3.225-.32-4.88-.32-21.156 0-38.307 17.151-38.307 38.307h9.76c0-19.502 14.576-35.589 33.427-37.987z" fill="#6377e7"/><circle cx="53.153" cy="159.887" fill="#63bce7" r="20.449"/><path d="m42.464 159.887c0-9.609 6.636-17.647 15.569-19.838-1.566-.384-3.195-.61-4.88-.61-11.294 0-20.449 9.155-20.449 20.449 0 11.293 9.155 20.449 20.449 20.449 1.685 0 3.313-.226 4.88-.61-8.933-2.193-15.569-10.231-15.569-19.84z" fill="#6377e7"/><path d="m164.541 218.643c0-21.156 17.151-38.307 38.307-38.307s38.307 17.151 38.307 38.307z" fill="#f46275"/><path d="m202.848 180.336c-1.655 0-3.281.117-4.88.32 18.85 2.398 33.427 18.485 33.427 37.987h9.76c0-21.157-17.151-38.307-38.307-38.307z" fill="#f48875"/><path d="m82.069 218.643c0-25.367 20.564-45.931 45.931-45.931s45.931 20.564 45.931 45.931z" fill="#f8af23"/><g><circle cx="197.968" cy="75.236" fill="#63bce7" r="24.932"/><g fill="#f8af23"><path d="m204.831 143.249c0 3.791-3.073 6.864-6.864 6.864-3.791 0-6.864-3.073-6.864-6.864v-26.09c0-3.791 3.073-6.864 6.864-6.864 3.791 0 6.864 3.073 6.864 6.864z"/><circle cx="197.968" cy="75.236" r="15.209"/></g></g><g><path d="m54.451 118.717 9.573-20.807 7.404 14.553 4.34-10.085 5.361 5.936 13.021-31.083 9.701 20.743 2.872-8.999 18.063 29.742z" fill="#f8af23"/><g><path d="m124.641 58.722v15.725h-15.725c0 8.685 7.04 15.725 15.725 15.725s15.725-7.04 15.725-15.725c-.001-8.685-7.041-15.725-15.725-15.725z" fill="#f8af23"/><path d="m124.641 58.722c-8.685 0-15.725 7.04-15.725 15.725h15.725z" fill="#f46275"/></g><g fill="#f46275"><path d="m136 101.346h7.457v17.371h-7.457z"/><path d="m150.717 98.269h7.457v20.449h-7.457z"/><path d="m165.434 95.013h7.457v23.705h-7.457z"/></g></g><circle cx="128" cy="148.193" fill="#f8af23" r="24.519"/><circle cx="202.848" cy="159.887" fill="#f46275" r="20.449"/><path d="m202.848 139.438c-1.685 0-3.313.226-4.88.61 8.933 2.191 15.569 10.23 15.569 19.838s-6.636 17.647-15.569 19.838c1.567.384 3.195.61 4.88.61 11.293 0 20.449-9.155 20.449-20.449-.001-11.291-9.156-20.447-20.449-20.447z" fill="#f48875"/><g fill="#321f7a"><path d="m57.959 44.078c2.413 0 4.375-1.963 4.375-4.375s-1.962-4.375-4.375-4.375-4.375 1.963-4.375 4.375 1.963 4.375 4.375 4.375zm0-5.75c.758 0 1.375.617 1.375 1.375s-.617 1.375-1.375 1.375-1.375-.617-1.375-1.375.617-1.375 1.375-1.375z"/><path d="m73.293 44.078c2.413 0 4.375-1.963 4.375-4.375s-1.962-4.375-4.375-4.375-4.375 1.963-4.375 4.375 1.962 4.375 4.375 4.375zm0-5.75c.758 0 1.375.617 1.375 1.375s-.617 1.375-1.375 1.375-1.375-.617-1.375-1.375.616-1.375 1.375-1.375z"/><path d="m85.75 41.203h118.25c.828 0 1.5-.672 1.5-1.5s-.672-1.5-1.5-1.5h-118.25c-.829 0-1.5.672-1.5 1.5s.672 1.5 1.5 1.5z"/><path d="m245.657 180.584 3.053-7.023c.201-.464.155-.997-.122-1.42-.276-.423-.748-.678-1.254-.678h-14.351c3.722-2.766 6.148-7.182 6.148-12.164v-123.778c0-8.361-6.803-15.164-15.164-15.164h-191.932c-8.362 0-15.165 6.803-15.165 15.164v123.777c0 4.982 2.427 9.398 6.149 12.164h-14.352c-.505 0-.977.255-1.254.678s-.323.957-.121 1.42l3.053 7.023c2.505 5.766 7.617 9.81 13.671 10.977-6.295 6.768-10.263 15.721-10.631 25.582h-4.065c-.829 0-1.5.672-1.5 1.5s.671 1.5 1.5 1.5h72.749 91.862 72.749c.828 0 1.5-.672 1.5-1.5s-.672-1.5-1.5-1.5h-4.063c-.368-9.863-4.337-18.817-10.634-25.585 6-1.183 11.2-5.283 13.674-10.973zm-.611-6.121-2.142 4.926c-.118.271-.249.535-.381.798h-29.404c-.409-.109-.823-.208-1.237-.304 2.82-1.279 5.324-3.135 7.358-5.42.004 0 .007.001.011.001h4.716 21.079zm-77.892 17.447h6.221c-1.269 1.393-2.447 2.879-3.516 4.457-.822-1.537-1.724-3.025-2.705-4.457zm9.273-3h-11.51c-1.659-2.056-3.486-3.97-5.46-5.724h3.03c3.158 0 6.085-1.426 8.031-3.911l3.769-4.812h12.169c2.043 2.295 4.559 4.156 7.394 5.436-6.467 1.516-12.465 4.623-17.423 9.011zm-90.289 7.463c-1.069-1.577-2.239-3.07-3.508-4.463h6.216c-.982 1.433-1.886 2.923-2.708 4.463zm4.945-7.463h-11.25c-.083 0-.162.012-.241.024-4.964-4.397-10.971-7.516-17.445-9.034 2.836-1.28 5.353-3.142 7.396-5.438h12.168l3.77 4.812c1.946 2.485 4.874 3.911 8.031 3.911h3.03c-1.973 1.755-3.8 3.669-5.459 5.725zm-56.879-29.023c0-10.448 8.5-18.948 18.949-18.948s18.949 8.5 18.949 18.948-8.5 18.949-18.949 18.949-18.949-8.501-18.949-18.949zm-3 0c0 1.055.079 2.09.224 3.105-1.781-.292-3.149-1.831-3.149-3.693v-127.533h199.442v127.533c0 1.863-1.367 3.401-3.149 3.693.144-1.015.224-2.051.224-3.105 0-10.917-8.012-19.995-18.465-21.669v-21.06c0-4.099-2.966-7.511-6.863-8.221v-7.314c13.879-.781 24.932-12.316 24.932-26.386 0-14.575-11.857-26.433-26.432-26.433s-26.433 11.857-26.433 26.433c0 14.07 11.053 25.605 24.933 26.386v7.314c-3.898.709-6.864 4.123-6.864 8.221v25.241c-5.284 4.011-8.705 10.356-8.705 17.488 0 1.076.081 2.132.232 3.167h-31.791c2.945-4.216 4.68-9.338 4.68-14.86 0-14.347-11.672-26.019-26.019-26.019-6.868 0-13.118 2.68-17.773 7.042h-63.596v-58.587l2.821 2.821c.293.293.677.439 1.061.439s.768-.146 1.061-.439c.586-.586.586-1.535 0-2.121l-5.382-5.382c-.586-.586-1.535-.586-2.121 0l-5.382 5.382c-.586.586-.586 1.535 0 2.121s1.535.586 2.121 0l2.821-2.821v60.087c0 .828.671 1.5 1.5 1.5h62.355c-3.445 4.413-5.505 9.957-5.505 15.977 0 5.522 1.734 10.644 4.68 14.86h-31.792c.15-1.035.232-2.091.232-3.167 0-12.103-9.846-21.948-21.949-21.948s-21.949 9.845-21.949 21.948zm166.764-61.219c-12.921 0-23.433-10.512-23.433-23.432 0-12.921 10.512-23.433 23.433-23.433 12.92 0 23.432 10.512 23.432 23.433 0 12.92-10.512 23.432-23.432 23.432zm0 13.127c2.957 0 5.363 2.406 5.363 5.363v20.792c-.161-.003-.321-.012-.483-.012-3.698 0-7.184.923-10.244 2.545v-23.326c0-2.956 2.406-5.362 5.364-5.362zm-24.41 59.668h-33.938c2.734-1.371 5.192-3.208 7.274-5.409h34.893c.565 1.925 1.385 3.742 2.425 5.409zm-101.769 0c1.04-1.667 1.86-3.484 2.425-5.409h34.87c.007 0 .014-.002.021-.002 2.082 2.201 4.541 4.04 7.276 5.411h-33.939zm56.211-46.288c12.692 0 23.019 10.326 23.019 23.019s-10.326 23.018-23.019 23.018-23.019-10.326-23.019-23.019 10.327-23.018 23.019-23.018zm-27.714 55.012h-6.773c-2.229 0-4.295-1.006-5.669-2.761l-2.321-2.963h25.254c-3.752 1.468-7.272 3.397-10.491 5.724zm70.192-5.724-2.32 2.963c-1.374 1.755-3.44 2.761-5.67 2.761h-6.774c-3.219-2.326-6.738-4.256-10.49-5.724zm13.421-14.576c0-10.448 8.501-18.948 18.949-18.948s18.948 8.5 18.948 18.948-8.5 18.949-18.948 18.949-18.949-8.501-18.949-18.949zm-164.029-.588v-123.778c0-6.707 5.457-12.164 12.165-12.164h191.931c6.707 0 12.164 5.457 12.164 12.164v123.777c0 6.707-5.457 12.164-12.164 12.164h-2.482c1.041-1.669 1.861-3.487 2.426-5.415.019.001.037.006.056.006 3.725 0 6.755-3.03 6.755-6.755v-129.032c0-.828-.672-1.5-1.5-1.5h-202.442c-.829 0-1.5.672-1.5 1.5v129.033c0 3.725 3.031 6.755 6.756 6.755.019 0 .037-.005.056-.006.565 1.928 1.386 3.746 2.426 5.415h-2.482c-6.708 0-12.165-5.457-12.165-12.164zm12.165 15.164h4.59c.043 0 .084-.009.126-.013 2.036 2.291 4.543 4.151 7.368 5.432-.414.097-.828.195-1.237.304h-29.406c-.132-.263-.262-.526-.38-.798l-2.141-4.926h21.08zm-16.612 8.724h19.67c-3.028 1.549-5.834 3.471-8.354 5.71-.035-.005-.068-.015-.105-.017-4.451-.275-8.467-2.37-11.211-5.693zm37.73-1.351c12.78 0 24.8 6.775 31.452 17.693-2.396 5.418-3.802 11.364-3.998 17.613h-64.223c.791-19.601 16.977-35.306 36.769-35.306zm30.441 35.307c.742-22.235 17.904-40.381 39.718-42.68h9.376c21.814 2.299 38.976 20.444 39.717 42.68zm91.799 0c-.195-6.246-1.601-12.19-3.995-17.606 6.654-10.926 18.651-17.7 31.45-17.7 19.792 0 35.978 15.705 36.769 35.307h-64.224zm53.853-28.259c-2.516-2.234-5.316-4.151-8.339-5.697h19.648c-2.783 3.329-6.884 5.456-11.309 5.697z"/><path d="m42.625 44.078c2.413 0 4.375-1.963 4.375-4.375s-1.962-4.375-4.375-4.375-4.375 1.963-4.375 4.375 1.963 4.375 4.375 4.375zm0-5.75c.758 0 1.375.617 1.375 1.375s-.617 1.375-1.375 1.375-1.375-.617-1.375-1.375.617-1.375 1.375-1.375z"/><path d="m27.324 232.643h-18.004c-.829 0-1.5.672-1.5 1.5s.671 1.5 1.5 1.5h18.003c.829 0 1.5-.672 1.5-1.5s-.671-1.5-1.499-1.5z"/><path d="m246.68 232.643h-18.003c-.828 0-1.5.672-1.5 1.5s.672 1.5 1.5 1.5h18.003c.828 0 1.5-.672 1.5-1.5s-.672-1.5-1.5-1.5z"/><path d="m218.48 232.643h-180.959c-.829 0-1.5.672-1.5 1.5s.671 1.5 1.5 1.5h180.959c.828 0 1.5-.672 1.5-1.5s-.672-1.5-1.5-1.5z"/><path d="m197.968 58.527c-9.213 0-16.709 7.496-16.709 16.709s7.496 16.708 16.709 16.708 16.709-7.495 16.709-16.708-7.496-16.709-16.709-16.709zm0 30.417c-7.56 0-13.709-6.149-13.709-13.708 0-7.56 6.149-13.709 13.709-13.709s13.709 6.149 13.709 13.709c0 7.559-6.149 13.708-13.709 13.708z"/><path d="m51.675 117.218c-.829 0-1.5.672-1.5 1.5s.671 1.5 1.5 1.5h2.776 70.335 4.34c.828 0 1.5-.672 1.5-1.5s-.672-1.5-1.5-1.5h-3.496l-17.624-29.021c-.305-.503-.876-.771-1.459-.711-.583.069-1.073.474-1.252 1.033l-1.707 5.351-8.079-17.273c-.251-.538-.814-.854-1.39-.864-.593.013-1.124.373-1.353.921l-12.107 28.902-3.777-4.183c-.342-.379-.853-.557-1.358-.474-.504.083-.931.417-1.133.887l-3.076 7.146-5.954-11.702c-.261-.513-.761-.82-1.367-.82-.575.012-1.093.351-1.333.873l-9.172 19.935zm12.417-15.866 5.999 11.791c.264.52.801.868 1.385.819.581-.019 1.1-.372 1.33-.906l3.416-7.938 3.794 4.201c.344.381.857.562 1.366.473.506-.086.933-.426 1.131-.899l11.712-27.959 8.267 17.677c.262.559.842.896 1.455.861.616-.04 1.145-.453 1.333-1.041l1.871-5.862 14.969 24.649h-65.328z"/><path d="m141.866 74.446c0-9.498-7.728-17.225-17.225-17.225s-17.225 7.727-17.225 17.225 7.727 17.226 17.225 17.226 17.225-7.728 17.225-17.226zm-18.726-14.146v12.646h-12.646c.7-6.648 5.998-11.946 12.646-12.646zm1.5 28.372c-7.337 0-13.395-5.584-14.146-12.726h14.146c.829 0 1.5-.672 1.5-1.5v-14.146c7.141.752 12.725 6.81 12.725 14.146.001 7.844-6.381 14.226-14.225 14.226z"/><path d="m147.2 68.554h18.475c.828 0 1.5-.672 1.5-1.5s-.672-1.5-1.5-1.5h-18.475c-.828 0-1.5.672-1.5 1.5s.672 1.5 1.5 1.5z"/><path d="m147.2 75.946h18.475c.828 0 1.5-.672 1.5-1.5s-.672-1.5-1.5-1.5h-18.475c-.828 0-1.5.672-1.5 1.5s.672 1.5 1.5 1.5z"/><path d="m167.175 81.84c0-.828-.672-1.5-1.5-1.5h-18.475c-.828 0-1.5.672-1.5 1.5s.672 1.5 1.5 1.5h18.475c.828 0 1.5-.672 1.5-1.5z"/><path d="m143.457 99.847h-7.457c-.828 0-1.5.672-1.5 1.5v17.371c0 .828.672 1.5 1.5 1.5h7.457c.828 0 1.5-.672 1.5-1.5v-17.371c0-.828-.672-1.5-1.5-1.5zm-1.5 17.371h-4.457v-14.371h4.457z"/><path d="m158.174 96.769h-7.457c-.828 0-1.5.672-1.5 1.5v20.449c0 .828.672 1.5 1.5 1.5h7.457c.828 0 1.5-.672 1.5-1.5v-20.449c0-.829-.672-1.5-1.5-1.5zm-1.5 20.449h-4.457v-17.449h4.457z"/><path d="m163.934 95.013v23.705c0 .828.672 1.5 1.5 1.5h7.457c.828 0 1.5-.672 1.5-1.5v-23.705c0-.828-.672-1.5-1.5-1.5h-7.457c-.828 0-1.5.672-1.5 1.5zm3 1.5h4.457v20.705h-4.457z"/></g></g></svg>