<svg id="Layer_1" enable-background="new 0 0 256 256" height="512" viewBox="0 0 256 256" width="512" xmlns="http://www.w3.org/2000/svg"><g><path d="m201.514 113.612h29.25v98.719h-29.25z" fill="#63bce7"/><path d="m221.004 113.612h9.76v98.719h-9.76z" fill="#63e2e7"/><path d="m230.764 212.331c0 8.077-6.548 14.625-14.625 14.625s-14.625-6.548-14.625-14.625z" fill="#f46275"/><path d="m221.004 212.331c0 6.363-4.071 11.762-9.745 13.773 1.528.542 3.166.852 4.88.852 8.077 0 14.625-6.548 14.625-14.625z" fill="#f48875"/><path d="m201.514 113.612 14.625-23.156 14.625 23.156z" fill="#f46275"/><path d="m216.139 90.456-4.88 7.726 9.745 15.43h9.76z" fill="#f48875"/><path d="m201.514 221.956c0 2.75-2.25 5-5 5h-138.74c-2.75 0-5-2.25-5-5v-178.34c0-2.75 2.25-5 5-5h138.74c2.75 0 5 2.25 5 5z" fill="#f8af23"/><path d="m62.533 221.956v-178.34c0-2.75 2.25-5 5-5h-9.76c-2.75 0-5 2.25-5 5v178.34c0 2.75 2.25 5 5 5h9.76c-2.75 0-5-2.25-5-5z" fill="#f87023"/><path d="m191.754 221.956v-178.34c0-2.75-2.25-5-5-5h9.76c2.75 0 5 2.25 5 5v178.34c0 2.75-2.25 5-5 5h-9.76c2.75 0 5-2.25 5-5z" fill="#f8d323"/><path d="m160.144 26.366h-19.93c-.142-7.075-5.962-12.822-13.07-12.822s-12.928 5.747-13.07 12.822h-19.93c-1.105 0-2 .896-2 2v20.5c0 1.105.895 2 2 2h66c1.105 0 2-.895 2-2v-20.5c0-1.105-.896-2-2-2z" fill="#9e9e9e"/><g><path d="m101.903 48.866v-20.5c0-1.104.895-2 2-2h-9.76c-1.105 0-2 .896-2 2v20.5c0 1.105.895 2 2 2h9.76c-1.104 0-2-.895-2-2z" fill="#707070"/></g><g fill="#f46275"><path d="m90.18 81.796h9.25v17.547h-9.25z"/><path d="m109.93 75.276h9.25v24.066h-9.25z"/><path d="m129.68 71.767h9.25v27.576h-9.25z"/><path d="m149.43 64.249h9.25v35.094h-9.25z"/></g><path d="m107.071 194.096c-.342.955-.729 1.873-1.153 2.783l8.555 8.555-16.822 16.822-8.555-8.555c-.91.423-1.837.81-2.783 1.153v12.103h-23.782v-12.103c-.946-.342-1.873-.729-2.783-1.153l-8.555 8.555-16.822-16.822 8.555-8.555c-.423-.91-.81-1.828-1.153-2.783h-12.102v-23.783h12.103c.342-.946.729-1.873 1.153-2.783l-8.555-8.555 16.822-16.822 8.555 8.564c.91-.423 1.837-.82 2.783-1.162v-12.094h23.783v12.094c.946.342 1.873.738 2.783 1.162l8.555-8.564 16.822 16.822-8.555 8.555c.423.91.811 1.837 1.153 2.783h12.094v23.783z" fill="#9e9e9e"/><g fill="#707070"><path d="m52.686 167.53-8.555-8.555 11.94-11.94-4.877-4.882-16.822 16.822 8.555 8.555c-.423.91-.81 1.837-1.153 2.783h9.76c.342-.946.729-1.873 1.152-2.783z"/><path d="m52.686 196.878c-.423-.909-.81-1.828-1.153-2.783h-9.76c.342.955.729 1.873 1.153 2.783l-8.555 8.555 16.822 16.822 4.88-4.88-11.942-11.942z"/><path d="m62.531 214.853h9.76v12.103h-9.76z"/><path d="m62.531 137.462h9.76v12.094h-9.76z"/><path d="m29.671 170.313h9.76v23.783h-9.76z"/></g><circle cx="74.423" cy="182.206" fill="#67beeb" r="15.145"/><path d="m80.824 99.056-28.05-45.431-28.051 45.431 19.58-5.158v32.768h16.941v-32.768z" fill="#67beeb"/><g fill="#6377e7"><path d="m52.774 53.625-28.051 45.431 11.655-3.071 21.275-34.457z"/><path d="m44.303 93.898h9.76v32.769h-9.76z"/></g><g fill="#321f7a"><path d="m216.139 195.638c.828 0 1.5-.671 1.5-1.5v-62.333c0-.829-.672-1.5-1.5-1.5s-1.5.671-1.5 1.5v62.333c0 .829.672 1.5 1.5 1.5z"/><path d="m90.18 100.843h9.25c.828 0 1.5-.671 1.5-1.5v-17.547c0-.829-.672-1.5-1.5-1.5h-9.25c-.828 0-1.5.671-1.5 1.5v17.547c0 .828.672 1.5 1.5 1.5zm1.5-17.547h6.25v14.547h-6.25z"/><path d="m109.93 100.843h9.25c.828 0 1.5-.671 1.5-1.5v-24.067c0-.829-.672-1.5-1.5-1.5h-9.25c-.828 0-1.5.671-1.5 1.5v24.066c0 .829.672 1.501 1.5 1.501zm1.5-24.067h6.25v21.066h-6.25z"/><path d="m129.68 100.843h9.25c.828 0 1.5-.671 1.5-1.5v-27.576c0-.829-.672-1.5-1.5-1.5h-9.25c-.828 0-1.5.671-1.5 1.5v27.576c0 .828.672 1.5 1.5 1.5zm1.5-27.576h6.25v24.576h-6.25z"/><path d="m149.43 100.843h9.25c.828 0 1.5-.671 1.5-1.5v-35.094c0-.829-.672-1.5-1.5-1.5h-9.25c-.828 0-1.5.671-1.5 1.5v35.094c0 .828.672 1.5 1.5 1.5zm1.5-35.094h6.25v32.094h-6.25z"/><path d="m71.43 121.093h111.5c.828 0 1.5-.671 1.5-1.5s-.672-1.5-1.5-1.5h-111.5c-.828 0-1.5.671-1.5 1.5s.672 1.5 1.5 1.5z"/><path d="m71.43 130.5h111.5c.828 0 1.5-.671 1.5-1.5s-.672-1.5-1.5-1.5h-111.5c-.828 0-1.5.671-1.5 1.5s.672 1.5 1.5 1.5z"/><path d="m182.93 143.785h-57.75c-.828 0-1.5.671-1.5 1.5s.672 1.5 1.5 1.5h57.75c.828 0 1.5-.671 1.5-1.5s-.672-1.5-1.5-1.5z"/><path d="m182.93 156.631h-57.75c-.828 0-1.5.671-1.5 1.5s.672 1.5 1.5 1.5h57.75c.828 0 1.5-.671 1.5-1.5s-.672-1.5-1.5-1.5z"/><path d="m182.93 169.477h-57.75c-.828 0-1.5.671-1.5 1.5s.672 1.5 1.5 1.5h57.75c.828 0 1.5-.671 1.5-1.5s-.672-1.5-1.5-1.5z"/><path d="m182.93 182.323h-57.75c-.828 0-1.5.671-1.5 1.5s.672 1.5 1.5 1.5h57.75c.828 0 1.5-.671 1.5-1.5s-.672-1.5-1.5-1.5z"/><path d="m182.93 195.169h-57.75c-.828 0-1.5.671-1.5 1.5s.672 1.5 1.5 1.5h57.75c.828 0 1.5-.671 1.5-1.5s-.672-1.5-1.5-1.5z"/><path d="m182.93 208.015h-57.75c-.828 0-1.5.671-1.5 1.5s.672 1.5 1.5 1.5h57.75c.828 0 1.5-.671 1.5-1.5s-.672-1.5-1.5-1.5z"/><path d="m27.323 240.956h-18.003c-.828 0-1.5.671-1.5 1.5s.672 1.5 1.5 1.5h18.003c.828 0 1.5-.671 1.5-1.5s-.672-1.5-1.5-1.5z"/><path d="m246.68 240.956h-18.003c-.828 0-1.5.671-1.5 1.5s.672 1.5 1.5 1.5h18.003c.828 0 1.5-.671 1.5-1.5s-.672-1.5-1.5-1.5z"/><path d="m218.479 240.956h-180.958c-.828 0-1.5.671-1.5 1.5s.672 1.5 1.5 1.5h180.959c.828 0 1.5-.671 1.5-1.5s-.672-1.5-1.501-1.5z"/><path d="m9.32 228.456h48.453 4.758 23.783 110.199 50.166c.828 0 1.5-.671 1.5-1.5s-.672-1.5-1.5-1.5h-21.208c4.103-2.926 6.792-7.713 6.792-13.125v-98.719c0-.295-.088-.569-.236-.801h.004l-14.625-23.156c-.551-.871-1.986-.871-2.537 0l-11.856 18.773v-64.812c0-3.584-2.916-6.5-6.5-6.5h-32.87v-8.75c0-1.93-1.57-3.5-3.5-3.5h-18.534c-.883-7.192-7.087-12.822-14.466-12.822s-13.583 5.629-14.466 12.822h-18.533c-1.93 0-3.5 1.57-3.5 3.5v8.75h-32.87c-3.584 0-6.5 2.916-6.5 6.5v9.583l-27.828 45.069c-.322.522-.294 1.188.071 1.681s.995.714 1.587.558l17.699-4.662v30.822c0 .829.672 1.5 1.5 1.5h6.97v12.495c-.027-.001-.053-.008-.08-.008-.397 0-.779.158-1.061.439l-16.821 16.822c-.586.585-.586 1.535 0 2.121l7.823 7.824c-.138.319-.27.637-.395.953h-11.068c-.828 0-1.5.671-1.5 1.5v23.783c0 .829.672 1.5 1.5 1.5h11.067c.124.313.256.63.396.954l-7.823 7.824c-.586.586-.586 1.536 0 2.121l16.821 16.822c.377.377.899.484 1.383.377.176.632.443 1.224.789 1.763h-42.984c-.828 0-1.5.671-1.5 1.5s.672 1.499 1.5 1.499zm192.662-3c.65-1.012 1.031-2.211 1.031-3.5v-.292c1.045 1.465 2.326 2.747 3.792 3.792zm27.282-14.625h-26.25v-95.719h26.25zm-13.125 14.625c-6.73 0-12.293-5.091-13.04-11.625h26.08c-.747 6.534-6.31 11.625-13.04 11.625zm0-132.191 11.903 18.847h-23.807zm-122.495-64.899c0-.276.225-.5.5-.5h19.93c.816 0 1.483-.653 1.5-1.47.126-6.26 5.316-11.352 11.57-11.352s11.444 5.092 11.57 11.352c.017.816.684 1.47 1.5 1.47h19.93c.275 0 .5.224.5.5v20.5c0 .276-.225.5-.5.5h-66c-.275 0-.5-.224-.5-.5zm-48.424 64.344c-.368-.284-.849-.38-1.298-.263l-15.95 4.202 24.801-40.169 24.802 40.168-15.949-4.201c-.449-.118-.929-.021-1.298.263-.368.284-.584.723-.584 1.188v31.269h-13.94v-31.269c0-.465-.216-.904-.584-1.188zm16.024 35.457c.828 0 1.5-.671 1.5-1.5v-30.823l17.698 4.662c.59.156 1.222-.065 1.587-.558s.394-1.159.071-1.681l-27.827-45.068v-9.583c0-1.93 1.57-3.5 3.5-3.5h32.87v8.75c0 1.93 1.57 3.5 3.5 3.5h66c1.93 0 3.5-1.57 3.5-3.5v-8.75h32.87c1.93 0 3.5 1.57 3.5 3.5v69.996 98.719 9.625c0 1.93-1.57 3.5-3.5 3.5h-108.699v-9.569c.316-.126.635-.258.952-.395l7.824 7.824c.281.281.663.439 1.061.439s.779-.158 1.061-.439l16.822-16.822c.586-.585.586-1.535 0-2.121l-7.823-7.824c.141-.323.272-.641.396-.954h11.058c.828 0 1.5-.671 1.5-1.5v-23.783c0-.829-.672-1.5-1.5-1.5h-11.06c-.125-.316-.257-.634-.395-.953l7.823-7.824c.586-.586.586-1.536 0-2.121l-16.822-16.822c-.563-.564-1.561-.562-2.122 0l-7.821 7.83c-.326-.142-.643-.275-.954-.4v-11.062c0-.829-.672-1.5-1.5-1.5h-23.783c-.828 0-1.5.671-1.5 1.5v11.062c-.312.125-.629.258-.954.4l-5.804-5.81v-14.947h6.971zm-24.751 77.267 7.494-7.495c.445-.445.565-1.122.3-1.693-.438-.941-.798-1.81-1.101-2.656-.214-.596-.778-.994-1.412-.994h-10.603v-20.783h10.604c.632 0 1.196-.396 1.411-.99.312-.866.684-1.761 1.102-2.66.266-.571.146-1.248-.3-1.693l-7.494-7.495 14.699-14.7 7.495 7.502c.446.446 1.125.564 1.694.3.962-.448 1.832-.812 2.66-1.111.594-.215.989-.779.989-1.41v-10.594h20.783v10.594c0 .631.396 1.195.989 1.41.828.3 1.698.664 2.66 1.111.568.265 1.248.147 1.694-.3l7.494-7.502 14.7 14.7-7.494 7.495c-.445.445-.565 1.122-.3 1.693.418.898.789 1.793 1.102 2.66.215.594.779.99 1.411.99h10.594v20.783h-10.594c-.634 0-1.198.398-1.412.994-.303.846-.663 1.715-1.101 2.656-.266.571-.146 1.248.3 1.693l7.494 7.495-14.701 14.7-7.494-7.494c-.445-.446-1.126-.565-1.693-.299-.893.416-1.787.786-2.66 1.103-.594.215-.989.779-.989 1.41v10.603h-20.783v-10.603c0-.631-.396-1.195-.989-1.41-.873-.316-1.768-.687-2.66-1.103-.568-.266-1.248-.147-1.693.299l-7.495 7.495zm17.78 16.522c0-.195-.04-.381-.108-.552l5.913-5.913c.318.138.637.27.953.396v9.569h-3.258c-1.929 0-3.5-1.57-3.5-3.5z"/><path d="m74.423 198.851c9.178 0 16.645-7.467 16.645-16.645s-7.467-16.645-16.645-16.645c-9.179 0-16.646 7.467-16.646 16.645s7.467 16.645 16.646 16.645zm0-30.29c7.523 0 13.645 6.121 13.645 13.645s-6.121 13.645-13.645 13.645-13.646-6.121-13.646-13.645 6.121-13.645 13.646-13.645z"/></g></g></svg>