<svg id="Layer_1" enable-background="new 0 0 256 256" height="512" viewBox="0 0 256 256" width="512" xmlns="http://www.w3.org/2000/svg"><g><g><circle cx="178.354" cy="199.343" fill="#9e9e9e" r="13.199"/><path d="m67.53 34.05h86.853v64.394h-86.853z" fill="#f8af23"/><path d="m67.53 34.051h9.428v64.394h-9.428z" fill="#f87023"/><path d="m116.581 34.05h-11.25-11.25v35.138l5.75-6.75 5.5 6.75 5.75-6.75 5.5 6.75 5.75-6.75 5.5 6.75v-35.138z" fill="#f46275"/><path d="m139.337 49.721 11.893 52.793h37.165l11.893-52.793z" fill="#f46275"/><g><path d="m190.86 49.721-11.893 52.793h9.428l11.893-52.793z" fill="#f48875"/></g><path d="m62.426 91.33h140.732v47.827l-118.557 21.219z" fill="#63bce7"/><g><path d="m203.158 91.33h-9.428v49.514l9.428-1.687z" fill="#63e2e7"/></g><path d="m62.426 91.33 22.175 69.046 8.916-1.596-21.663-67.45z" fill="#6377e7"/><circle cx="97.426" cy="199.343" fill="#9e9e9e" r="13.199"/><g fill="#707070"><path d="m93.655 199.343c0-5.626 3.527-10.418 8.485-12.317-1.466-.562-3.051-.882-4.714-.882-7.29 0-13.199 5.909-13.199 13.199s5.91 13.199 13.199 13.199c1.663 0 3.248-.321 4.714-.882-4.958-1.899-8.485-6.69-8.485-12.317z"/><path d="m174.583 199.343c0-5.626 3.527-10.418 8.485-12.317-1.466-.562-3.051-.882-4.714-.882-7.29 0-13.199 5.909-13.199 13.199s5.91 13.199 13.199 13.199c1.663 0 3.248-.321 4.714-.882-4.958-1.899-8.485-6.69-8.485-12.317z"/></g></g><path d="m40.625 73.34h-16.452c-2.887 0-5.25-2.362-5.25-5.25 0-2.887 2.362-5.25 5.25-5.25h16.452c2.887 0 5.25 2.362 5.25 5.25 0 2.888-2.362 5.25-5.25 5.25z" fill="#9e9e9e"/><g fill="#321f7a"><path d="m27.323 226.543h-18.003c-.829 0-1.5.672-1.5 1.5s.671 1.5 1.5 1.5h18.003c.829 0 1.5-.672 1.5-1.5s-.671-1.5-1.5-1.5z"/><path d="m246.68 226.543h-18.003c-.828 0-1.5.672-1.5 1.5s.672 1.5 1.5 1.5h18.003c.828 0 1.5-.672 1.5-1.5s-.672-1.5-1.5-1.5z"/><path d="m218.48 226.543h-180.959c-.829 0-1.5.672-1.5 1.5s.671 1.5 1.5 1.5h180.959c.828 0 1.5-.672 1.5-1.5s-.672-1.5-1.5-1.5z"/><path d="m9.32 214.043h237.36c.828 0 1.5-.672 1.5-1.5s-.672-1.5-1.5-1.5h-59.463c3.538-2.687 5.837-6.925 5.837-11.7s-2.299-9.012-5.836-11.699h15.941c.828 0 1.5-.672 1.5-1.5s-.672-1.5-1.5-1.5h-130.53v-4.396c0-13.205 11.094-17.92 12.375-18.42l118.419-21.194c.715-.128 1.235-.75 1.235-1.477v-47.827c0-.828-.672-1.5-1.5-1.5h-10.368l8.962-39.779c.101-.445-.007-.911-.291-1.267-.285-.356-.716-.563-1.172-.563h-13.541v-4.829c0-9.338-7.597-16.935-16.934-16.935-5.786 0-10.899 2.921-13.955 7.362-.112-.718-.728-1.269-1.477-1.269h-26.551-33.75-26.551c-.829 0-1.5.672-1.5 1.5v55.78h-2.51l-7.13-22.199c-.199-.62-.776-1.041-1.428-1.041h-7.76c-.685-3.001-3.37-5.25-6.576-5.25h-16.453c-3.722 0-6.75 3.028-6.75 6.75s3.028 6.75 6.75 6.75h16.452c3.206 0 5.892-2.249 6.576-5.25h6.667l9.63 29.982 19.266 59.988c-3.575 1.775-13.135 7.732-13.135 20.688v5.896c0 .828.671 1.5 1.5 1.5h17.435c-3.538 2.687-5.837 6.924-5.837 11.699s2.299 9.013 5.837 11.7h-79.244c-.829 0-1.5.672-1.5 1.5s.671 1.5 1.5 1.5zm31.305-142.203h-16.452c-2.068 0-3.75-1.683-3.75-3.75s1.682-3.75 3.75-3.75h16.452c2.068 0 3.75 1.683 3.75 3.75s-1.682 3.75-3.75 3.75zm99.061 20.99v56.163l-31.442 5.627v-61.79zm34.443 0v49.998l-31.443 5.628v-55.626zm27.529 45.071-24.529 4.39v-49.461h24.529zm-11.943-48.071h-39.805l-8.697-38.609h57.2zm-19.901-60.373c7.683 0 13.934 6.251 13.934 13.935v4.829h-27.865v-4.868c.02-7.666 6.261-13.896 13.931-13.896zm-43.483 6.094v29.421l-2.837-3.481c-.281-.346-.702-.548-1.146-.553-.006 0-.011 0-.017 0-.439 0-.857.192-1.142.527l-4.583 5.38-4.362-5.354c-.281-.346-.702-.548-1.146-.553-.006 0-.011 0-.017 0-.439 0-.857.192-1.142.527l-4.583 5.38-4.362-5.354c-.281-.346-.702-.548-1.146-.553-.49-.008-.87.188-1.159.527l-3.108 3.648v-29.562zm-57.301 0h23.551v33.637c0 .629.392 1.19.982 1.407.589.218 1.252.043 1.66-.435l4.583-5.38 4.362 5.354c.281.346.702.548 1.146.553.473.028.87-.188 1.159-.527l4.583-5.38 4.362 5.354c.281.346.702.548 1.146.553.464.028.87-.188 1.159-.527l4.583-5.38 4.362 5.354c.291.356.721.553 1.164.553.168 0 .338-.028.502-.087.598-.213.997-.778.997-1.413v-33.636h23.551v7.802c0 .013-.002.026-.002.039v4.829h-13.543c-.456 0-.887.207-1.172.563-.284.355-.392.821-.291 1.267l8.961 39.779h-77.805zm36.213 57.279v62.327l-19.615 3.511-21.145-65.838zm84.811 106.513c0 6.451-5.248 11.7-11.699 11.7s-11.7-5.249-11.7-11.7 5.249-11.699 11.7-11.699 11.699 5.248 11.699 11.699zm-20.562-11.699c-3.538 2.687-5.837 6.924-5.837 11.699s2.299 9.013 5.838 11.7h-63.203c3.538-2.687 5.837-6.925 5.837-11.7s-2.299-9.012-5.837-11.699zm-83.765 11.699c0-6.451 5.249-11.699 11.7-11.699s11.699 5.248 11.699 11.699-5.248 11.7-11.699 11.7-11.7-5.249-11.7-11.7z"/></g></g></svg>