<svg enable-background="new 0 0 256 256" height="512" viewBox="0 0 256 256" width="512" xmlns="http://www.w3.org/2000/svg"><circle cx="215.25" cy="185.997" fill="#fc3850" r="38.25"/><path d="m209.25 168.497v11.5h-11.5c-3.314 0-6 2.686-6 6s2.686 6 6 6h11.5v11.5c0 3.314 2.686 6 6 6s6-2.686 6-6v-11.5h11.5c3.314 0 6-2.686 6-6s-2.686-6-6-6h-11.5v-11.5c0-3.314-2.686-6-6-6s-6 2.686-6 6z" fill="#edf4fc"/><path d="m188.203 158.95c13.069-13.069 33.243-14.704 48.089-4.904v-108.26c0-7.719-6.315-14.033-14.033-14.033h-205.726c-7.718 0-14.033 6.314-14.033 14.033v126.419c0 7.719 6.315 14.033 14.033 14.033h160.473c-.062-9.869 3.667-19.758 11.197-27.288z" fill="#c5e3ff"/><path d="m106.595 153.947v-90.16c0-5.505-4.504-10.008-10.008-10.008h-63.278c-5.505 0-10.008 4.504-10.008 10.008v90.16c0 5.505 4.504 10.008 10.008 10.008h63.278c5.505 0 10.008-4.503 10.008-10.008z" fill="#facb35"/><g fill="#f9c1a8"><path d="m86.919 95.375c-.457 0-.905.039-1.343.106v1.419 14.427c0 .472-.021.939-.053 1.404.456.073.92.122 1.396.122 4.827 0 8.739-3.913 8.739-8.74.001-4.825-3.912-8.738-8.739-8.738z"/><path d="m43.711 96.901v-1.419c-.438-.068-.886-.106-1.343-.106-4.827 0-8.739 3.913-8.739 8.739 0 4.827 3.913 8.74 8.739 8.74.476 0 .94-.049 1.396-.122-.031-.465-.053-.932-.053-1.404z"/><path d="m67.778 85.932c-7.645 9.615-18.924 8.258-22.716 7.464-.689-.144-1.35.375-1.351 1.079v.014 16.838c0 11.513 9.419 20.932 20.932 20.932 11.513 0 20.932-9.42 20.932-20.932v-18.645c0-.109-.001-.218-.003-.327-.012-.594-.487-1.083-1.081-1.1-8.696-.255-13.278-3.701-15.038-5.427-.48-.472-1.256-.422-1.675.104z"/></g><path d="m42.368 95.375c.457 0 .905.039 1.343.106v-.991c0-.005 0-.009 0-.014.001-.704.662-1.223 1.351-1.079 3.792.794 15.071 2.15 22.716-7.464.419-.527 1.195-.576 1.675-.105 1.761 1.726 6.342 5.172 15.038 5.427.594.017 1.069.507 1.081 1.1.002.109.003.218.003.327v2.8c.438-.068.886-.106 1.343-.106 2.356 0 4.49.937 6.061 2.452v-15.72c0-6.576-5.381-11.957-11.957-11.957-2.231 0-4.316.63-6.108 1.705-2.093-3.494-5.907-5.852-10.254-5.852h-6.14c-11.883 0-21.606 9.723-21.606 21.606v9.681c1.497-1.196 3.39-1.916 5.454-1.916z" fill="#843418"/><path d="m64.644 132.261c-3.352 0-6.523-.803-9.339-2.219v7.747l4.153 9.219c.323.717 1.036 1.178 1.823 1.178h7.019c.766 0 1.465-.438 1.799-1.127l4.493-9.27v-8.06c-2.964 1.613-6.354 2.532-9.948 2.532z" fill="#f9c1a8"/><path d="m106.595 152.664c-.741-2.89-2.994-5.213-5.969-5.962l-16.256-4.092-9.779-4.822-4.493 9.27c-.334.689-1.033 1.127-1.799 1.127-.2 0-7.062 0-7.019 0-.786 0-1.5-.461-1.823-1.178l-4.153-9.219-9.779 4.822-16.256 4.092c-2.975.749-5.227 3.072-5.969 5.962v1.282c0 5.505 4.504 10.008 10.008 10.008h63.278c5.505 0 10.008-4.504 10.008-10.008v-1.282z" fill="#1387ce"/><path d="m215.25 226.729c-10.436 0-20.87-3.973-28.814-11.917-15.889-15.889-15.889-41.74 0-57.629s41.74-15.889 57.629 0 15.889 41.74 0 57.629c-7.945 7.944-18.379 11.917-28.815 11.917zm0-76.465c-9.155 0-18.31 3.484-25.279 10.454-13.938 13.939-13.938 36.619 0 50.559 13.939 13.939 36.619 13.939 50.559 0 13.938-13.939 13.938-36.619 0-50.559-6.97-6.97-16.125-10.454-25.28-10.454z"/><path d="m177.006 188.738h-160.473c-9.116 0-16.533-7.417-16.533-16.533v-126.419c0-9.116 7.417-16.533 16.533-16.533h205.727c9.116 0 16.533 7.417 16.533 16.533v108.261c0 .92-.505 1.766-1.315 2.201-.812.438-1.794.392-2.562-.114-14.088-9.301-32.991-7.371-44.945 4.584-6.81 6.81-10.526 15.867-10.465 25.505.004.666-.258 1.306-.727 1.777-.469.473-1.107.738-1.773.738zm-160.473-154.485c-6.359 0-11.533 5.174-11.533 11.533v126.419c0 6.359 5.174 11.533 11.533 11.533h158.032c.542-10.038 4.703-19.389 11.87-26.556 12.559-12.559 31.841-15.408 47.357-7.482v-103.914c0-6.359-5.174-11.533-11.533-11.533z"/><path d="m96.587 166.455h-63.278c-6.896 0-12.508-5.611-12.508-12.508v-90.16c0-6.897 5.611-12.509 12.508-12.509h63.278c6.897 0 12.509 5.611 12.509 12.509v90.16c0 6.897-5.612 12.508-12.509 12.508zm-63.278-110.177c-4.14 0-7.508 3.368-7.508 7.509v90.16c0 4.14 3.368 7.508 7.508 7.508h63.278c4.141 0 7.509-3.368 7.509-7.508v-90.16c0-4.141-3.368-7.509-7.509-7.509z"/><path d="m86.919 115.354c-.567 0-1.153-.05-1.793-.153-1.274-.205-2.184-1.347-2.097-2.636.027-.409.047-.82.047-1.236v-15.848c0-1.233.9-2.283 2.119-2.471.584-.09 1.164-.136 1.724-.136 6.197 0 11.239 5.042 11.239 11.239s-5.042 11.241-11.239 11.241zm1.157-17.372v12.264c2.89-.544 5.082-3.087 5.082-6.132s-2.192-5.588-5.082-6.132z"/><path d="m42.368 115.354c-6.197 0-11.239-5.042-11.239-11.239s5.042-11.239 11.239-11.239c.56 0 1.14.046 1.724.136 1.219.188 2.119 1.237 2.119 2.471v15.847c0 .416.021.827.048 1.236.087 1.289-.822 2.432-2.098 2.637-.64.101-1.226.151-1.793.151zm-1.157-17.372c-2.89.544-5.082 3.087-5.082 6.132s2.192 5.588 5.082 6.132z"/><path d="m64.644 134.761c-12.92 0-23.432-10.512-23.432-23.433v-16.838c0-1.102.485-2.118 1.331-2.806.854-.691 1.959-.957 3.032-.735 3.87.812 13.593 1.793 20.246-6.571.64-.806 1.594-1.305 2.617-1.368 1.032-.062 2.032.313 2.766 1.031 1.366 1.341 5.402 4.48 13.361 4.714 1.929.058 3.468 1.616 3.507 3.55.003.114.004.245.004.377v18.646c0 12.921-10.512 23.433-23.432 23.433zm-18.432-38.627v15.194c0 10.164 8.269 18.433 18.432 18.433 10.164 0 18.433-8.269 18.433-18.433v-17.64c-7.278-.483-11.795-3.062-14.273-5.093-7.546 8.448-17.78 8.228-22.592 7.539zm23.523-8.646c-.001.001-.002.002-.002.003.001-.001.001-.002.002-.003zm-1.957-1.555h.01z"/><path d="m92.981 100.327c-.636 0-1.261-.242-1.736-.7-1.171-1.13-2.707-1.752-4.326-1.752-.306 0-.629.026-.962.077-.719.112-1.454-.098-2.009-.573-.554-.475-.872-1.168-.872-1.897v-1.793c-7.278-.483-11.795-3.062-14.273-5.093-7.591 8.496-17.902 8.223-22.674 7.526-.129.484-.401.924-.789 1.257-.553.475-1.282.686-2.008.573-.339-.052-.654-.077-.964-.077-1.427 0-2.772.474-3.892 1.368-.751.601-1.778.718-2.645.301-.866-.416-1.417-1.292-1.417-2.253v-9.681c0-13.292 10.814-24.106 24.106-24.106h6.141c4.261 0 8.317 1.938 11.048 5.177 1.69-.678 3.494-1.029 5.313-1.029 7.972 0 14.457 6.485 14.457 14.457v15.719c0 1.003-.6 1.909-1.522 2.301-.314.133-.646.198-.976.198zm-4.905-7.393c.823.085 1.629.259 2.404.519v-11.345c0-5.215-4.242-9.457-9.457-9.457-1.684 0-3.351.467-4.821 1.349-.569.342-1.252.443-1.894.281-.643-.161-1.196-.571-1.537-1.14-1.714-2.86-4.821-4.638-8.109-4.638h-6.141c-10.535 0-19.106 8.571-19.106 19.106v5.663c.704-.192 1.428-.317 2.159-.37.227-.466.555-.882.969-1.219.854-.691 1.959-.957 3.032-.735 3.87.812 13.593 1.793 20.246-6.572.64-.805 1.594-1.304 2.617-1.367 1.032-.062 2.032.313 2.766 1.031 1.366 1.341 5.402 4.48 13.361 4.714 1.929.058 3.468 1.616 3.506 3.55.004.114.005.245.005.377z"/><path d="m68.3 150.686h-7.02c-1.768 0-3.378-1.041-4.103-2.652l-4.152-9.217c-.146-.323-.221-.673-.221-1.027v-7.747c0-.867.449-1.673 1.188-2.128.738-.454 1.659-.496 2.435-.105 2.576 1.295 5.341 1.952 8.216 1.952 3.049 0 6.075-.771 8.753-2.228.774-.421 1.714-.403 2.473.046.758.451 1.223 1.268 1.223 2.149v8.061c0 .378-.086.751-.25 1.091l-4.493 9.27c-.747 1.538-2.336 2.535-4.049 2.535zm-6.696-5h6.382l4.105-8.471v-3.678c-4.61 1.552-9.704 1.614-14.287.2v3.515z"/><path d="m56.97 106.609c-1.368 0-2.5-1.083-2.5-2.5 0-1.118.707-2.124 2.01-2.449 1.507-.298 2.99.847 2.99 2.449 0 1.378-1.117 2.5-2.5 2.5z"/><path d="m96.587 166.455h-63.278c-6.896 0-12.508-5.611-12.508-12.508v-1.283c0-.21.026-.418.078-.621.982-3.829 3.964-6.804 7.78-7.766l15.999-4.026 9.541-4.704c.608-.299 1.312-.341 1.95-.11.639.229 1.156.707 1.435 1.325l4.021 8.924h6.382l4.355-8.987c.291-.599.809-1.058 1.438-1.273.629-.218 1.318-.172 1.917.122l9.541 4.704 15.999 4.026c3.815.961 6.797 3.937 7.78 7.765.052.203.078.412.078.622v1.283c.001 6.896-5.611 12.507-12.508 12.507zm-70.786-13.447v.939c0 4.14 3.368 7.508 7.508 7.508h63.278c4.141 0 7.509-3.368 7.509-7.508v-.938c-.595-1.918-2.135-3.393-4.079-3.882l-16.256-4.092c-.171-.044-.337-.104-.495-.183l-7.521-3.708-3.396 7.005c-.747 1.54-2.336 2.536-4.049 2.536h-7.02c-1.768 0-3.378-1.041-4.103-2.652l-3.089-6.857-7.458 3.677c-.158.078-.324.139-.495.183l-16.256 4.092c-1.944.488-3.484 1.963-4.078 3.88z"/><path d="m212.622 135.37h-88.299c-1.381 0-2.5-1.119-2.5-2.5s1.119-2.5 2.5-2.5h88.299c1.381 0 2.5 1.119 2.5 2.5s-1.119 2.5-2.5 2.5z"/><path d="m177 151.229h-52.677c-1.381 0-2.5-1.119-2.5-2.5s1.119-2.5 2.5-2.5h52.677c1.381 0 2.5 1.119 2.5 2.5s-1.119 2.5-2.5 2.5z"/><path d="m212.622 87.789h-88.299c-1.381 0-2.5-1.119-2.5-2.5s1.119-2.5 2.5-2.5h88.299c1.381 0 2.5 1.119 2.5 2.5s-1.119 2.5-2.5 2.5z"/><path d="m212.622 71.929h-88.299c-1.381 0-2.5-1.119-2.5-2.5s1.119-2.5 2.5-2.5h88.299c1.381 0 2.5 1.119 2.5 2.5s-1.119 2.5-2.5 2.5z"/><path d="m212.622 103.649h-88.299c-1.381 0-2.5-1.119-2.5-2.5s1.119-2.5 2.5-2.5h88.299c1.381 0 2.5 1.119 2.5 2.5s-1.119 2.5-2.5 2.5z"/><path d="m212.622 119.51h-88.299c-1.381 0-2.5-1.119-2.5-2.5s1.119-2.5 2.5-2.5h88.299c1.381 0 2.5 1.119 2.5 2.5s-1.119 2.5-2.5 2.5z"/><path d="m56.164 118.468c-.772-1.145-.471-2.698.673-3.472 1.146-.771 2.699-.471 3.472.673 2.217 3.283 7.053 3.293 9.28 0 .775-1.145 2.33-1.443 3.471-.672 1.145.772 1.445 2.327.672 3.471-4.212 6.233-13.374 6.21-17.568 0z"/><path d="m72.93 106.609c-1.388 0-2.5-1.117-2.5-2.5 0-1.562 1.424-2.745 2.99-2.449 1.318.33 2.01 1.371 2.01 2.449 0 1.388-1.125 2.5-2.5 2.5z"/><path d="m215.25 211.997c-4.687 0-8.5-3.813-8.5-8.5v-9h-9c-4.687 0-8.5-3.813-8.5-8.5s3.813-8.5 8.5-8.5h9v-9c0-4.687 3.813-8.5 8.5-8.5s8.5 3.813 8.5 8.5v9h9c4.687 0 8.5 3.813 8.5 8.5s-3.813 8.5-8.5 8.5h-9v9c0 4.687-3.813 8.5-8.5 8.5zm-17.5-29.5c-1.93 0-3.5 1.57-3.5 3.5s1.57 3.5 3.5 3.5h11.5c1.381 0 2.5 1.119 2.5 2.5v11.5c0 1.93 1.57 3.5 3.5 3.5s3.5-1.57 3.5-3.5v-11.5c0-1.381 1.119-2.5 2.5-2.5h11.5c1.93 0 3.5-1.57 3.5-3.5s-1.57-3.5-3.5-3.5h-11.5c-1.381 0-2.5-1.119-2.5-2.5v-11.5c0-1.93-1.57-3.5-3.5-3.5s-3.5 1.57-3.5 3.5v11.5c0 1.381-1.119 2.5-2.5 2.5z"/></svg>