<?xml version="1.0" encoding="UTF-8"?>
<svg xmlns="http://www.w3.org/2000/svg" viewBox="0 0 512 512" width="512" height="512"><g id="Fill_out_line" data-name="Fill out line"><path d="M288,96a40.00174,40.00174,0,0,1-40,40H128v48H96V99.31006A27.31453,27.31453,0,0,1,123.31006,72h70.06006c1.32983,0,2.6499.05,3.97.1499A54.20686,54.20686,0,0,1,213.45,75.83c.06006-.09.11011-.18995.17017-.27991A40.00164,40.00164,0,0,1,288,96Z" style="fill:#ad7d4d"/><path d="M128,240l0,0a57.88846,57.88846,0,0,1-32-51.777V160h32Z" style="fill:#ad7d4d"/><path d="M264,136h8a0,0,0,0,1,0,0v48a0,0,0,0,1,0,0h-8a24,24,0,0,1-24-24v0a24,24,0,0,1,24-24Z" transform="translate(512 320) rotate(-180)" style="fill:#f4ceaf"/><path d="M296,374.80005V456L24,464V374.80005A118.69336,118.69336,0,0,1,89.49,268.61,117.17121,117.17121,0,0,1,113.29,259.68994c.24-.07995.49-.13989.74-.2l1.84985-.46A16.00193,16.00193,0,0,0,128,243.51V136H248v57.37A54.63161,54.63161,0,0,1,193.37012,248h-.72022a15.97078,15.97078,0,0,0,11.47022,11.03l1.84985.46c.25.06006.5.12.74.2q2.97.765,5.88013,1.66A118.8504,118.8504,0,0,1,296,374.80005Z" style="fill:#f4dfc4"/><path d="M296,374.80005V456L24,464V374.80005A118.69336,118.69336,0,0,1,89.49,268.61a117.29871,117.29871,0,0,1,23.75-8.91,64.00454,64.00454,0,0,0,93.52,0,117.29871,117.29871,0,0,1,23.75,8.91A118.81973,118.81973,0,0,1,296,374.80005Z" style="fill:#4ba477"/><path d="M112,136h16a0,0,0,0,1,0,0v48a0,0,0,0,1,0,0H112a24,24,0,0,1-24-24v0A24,24,0,0,1,112,136Z" style="fill:#f4ceaf"/><path d="M230.51,268.61a87.936,87.936,0,0,1-141.02,0A117.17121,117.17121,0,0,1,113.29,259.68994a63.86783,63.86783,0,0,0,93.41992,0A117.17121,117.17121,0,0,1,230.51,268.61Z" style="fill:#349966"/><path d="M288,456H440a16,16,0,0,0,16-16v0a16,16,0,0,0-16-16H288Z" style="fill:#396795"/><path d="M300.77238,424h136a15.27167,15.27167,0,0,0,14.5765-10.71651l30.45521-97.45667A15.27167,15.27167,0,0,0,467.22762,296h-136a15.27167,15.27167,0,0,0-14.5765,10.71651l-30.45521,97.45667A15.27167,15.27167,0,0,0,300.77238,424Z" style="fill:#26507a"/><path d="M286.19588,404.17318l30.45521-97.45667A15.27167,15.27167,0,0,1,331.22759,296h0a15.27167,15.27167,0,0,1,14.5765,19.82682l-30.45521,97.45667A15.27167,15.27167,0,0,1,300.77241,424h0A15.27167,15.27167,0,0,1,286.19588,404.17318Z" style="fill:#396795"/><circle cx="400" cy="360" r="16" style="fill:#d3e1e9"/><rect x="176.00002" y="424" width="143.99998" height="32" rx="15.99998" ry="15.99998" transform="translate(496.00002 880) rotate(-180)" style="fill:#26507a"/><path d="M136,352l32,24h48a48.004,48.004,0,0,1,48,48H128L91.60986,403.78Z" style="fill:#f4dfc4"/><polygon points="136 352 91.61 403.78 56 384 104 328 136 352" style="fill:#4ba477"/><path d="M213.62012,75.55005c-.05.09985-.1001.18994-.16016.28992A39.74361,39.74361,0,0,0,208,96H192a55.56606,55.56606,0,0,1,5.34009-23.8501A54.20686,54.20686,0,0,1,213.45,75.83C213.51,75.74,213.56006,75.64,213.62012,75.55005Z" style="fill:#966342"/><path d="M455.87988,422.03A23.143,23.143,0,0,1,436.77,432V416H440A23.81007,23.81007,0,0,1,455.87988,422.03Z"/><path d="M455.87988,422.03A23.143,23.143,0,0,1,436.77,432V416H440A23.81007,23.81007,0,0,1,455.87988,422.03Z"/><path d="M400,384a24,24,0,1,1,24-24A24.02718,24.02718,0,0,1,400,384Zm0-32a8,8,0,1,0,8,8A8.00917,8.00917,0,0,0,400,352Z"/><circle cx="216" cy="176" r="8"/><circle cx="168" cy="176" r="8"/><path d="M168.84473,212.42236a8.00033,8.00033,0,0,0,3.57715,10.73291,43.98758,43.98758,0,0,0,39.15624,0,8.00005,8.00005,0,0,0-7.15624-14.31054,27.9117,27.9117,0,0,1-24.84376,0A7.9994,7.9994,0,0,0,168.84473,212.42236Z"/><path d="M192.84473,195.57764a7.99984,7.99984,0,1,0,14.31054-7.15528l-8-16a7.99984,7.99984,0,1,0-14.31054,7.15528Z"/><path d="M489.43994,318.21A23.27,23.27,0,0,0,467.23,288h-136a23.15727,23.15727,0,0,0-22.21,16.33l-10.5,33.61a126.5972,126.5972,0,0,0-64.41016-76.47,125.19706,125.19706,0,0,0-21.53979-8.48A62.72929,62.72929,0,0,0,256,193.37v-2.38A31.98909,31.98909,0,0,0,271.22,138a47.99037,47.99037,0,1,0-60.91992-71.67993A62.42883,62.42883,0,0,0,193.37012,64H123.31006A35.30307,35.30307,0,0,0,88,99.31006V138.85a31.95755,31.95755,0,0,0,0,42.29992V188.22a65.49231,65.49231,0,0,0,31.90991,56.46,7.95734,7.95734,0,0,1-5.97,6.59009l-1.84985.46A126.83853,126.83853,0,0,0,16,374.80005V464H32V374.80005a110.73965,110.73965,0,0,1,55.46-95.99,95.85889,95.85889,0,0,0,145.09009-.02A110.8247,110.8247,0,0,1,287.95,371.7v.04L278.56006,401.79a23.1881,23.1881,0,0,0-.63013,11.54993c.12012.59.27,1.17.42993,1.74.09009.31.18018.61.28028.92h-7.21021A56.02231,56.02231,0,0,0,216,368H170.66992l-61.86987-46.4L99.2,334.3999,124.37012,353.28,89.79,393.62,59.87988,377.01l-7.75976,13.98,72,40A7.96188,7.96188,0,0,0,128,432h41.37988A23.59674,23.59674,0,0,0,168,440a24.03189,24.03189,0,0,0,24,24H440a23.98257,23.98257,0,0,0,15.87988-41.97,23.05312,23.05312,0,0,0,3.1001-6.36011ZM256,173.84V146.15991A15.97165,15.97165,0,0,1,256,173.84ZM104,99.31006A19.32416,19.32416,0,0,1,123.31006,80h70.06006a46.48631,46.48631,0,0,1,9.06982.88A47.85056,47.85056,0,0,0,200,96h16a32,32,0,1,1,32,32H112a32.00219,32.00219,0,0,0-8,1.01ZM96,160a16.02116,16.02116,0,0,1,16-16h48a8,8,0,0,0,0,16h16a8,8,0,0,0,0-16h32a8,8,0,0,0,0,16h16a8,8,0,0,0,0-16h16v49.37A46.68516,46.68516,0,0,1,193.37012,240h-2.74024a46.29007,46.29007,0,0,1-32.97-13.66l-11.31982,11.31994a62.17546,62.17546,0,0,0,41.11987,18.26,24.4117,24.4117,0,0,0,4.87012,5.75,55.7475,55.7475,0,0,1-64.64014.01A23.97121,23.97121,0,0,0,136,243.51V200a24.03189,24.03189,0,0,0-24-24A16.02116,16.02116,0,0,1,96,160Zm8.08008,31.01A31.89017,31.89017,0,0,0,112,192a8.01066,8.01066,0,0,1,8,8v24.87A49.52713,49.52713,0,0,1,104.08008,191.01ZM160,296a79.21473,79.21473,0,0,1-57.52-24.42993q4.17-1.63513,8.47-2.93006a71.81679,71.81679,0,0,0,98.09009.00989q4.3048,1.27515,8.48,2.92017A79.21473,79.21473,0,0,1,160,296ZM293.83008,406.56006,324.29,309.1a7.27129,7.27129,0,1,1,13.87988,4.34l-30.46,97.46a7.27133,7.27133,0,1,1-13.87988-4.33984ZM130.07007,416l-26.01-14.44995L137.2,362.8999l26,19.5A7.98264,7.98264,0,0,0,168,384h48a40.04129,40.04129,0,0,1,39.21,32ZM304,448H192a8,8,0,0,1,0-16H304a8,8,0,0,1,0,16Zm136,0H326.62012a23.88036,23.88036,0,0,0,0-16H440a8,8,0,0,1,0,16Zm3.71-37.1001A7.234,7.234,0,0,1,436.77,416H322.87012c.03979-.11.07983-.22.10986-.33008l30.46-97.46a23.13672,23.13672,0,0,0-.08008-14.21H467.23a7.26513,7.26513,0,0,1,6.93994,9.43994Z"/></g></svg>
