<svg height="512" viewBox="0 0 64 64" width="512" xmlns="http://www.w3.org/2000/svg"><g id="Fill_Outline" data-name="Fill Outline"><rect fill="#e5c1f4" height="36" rx="4" width="52.019" x="6" y="13"/><path d="m45 57h-26l4-8h18z" fill="#f5af0b"/><path d="m13 57h38a2 2 0 0 1 2 2v2a0 0 0 0 1 0 0h-42a0 0 0 0 1 0 0v-2a2 2 0 0 1 2-2z" fill="#f2ca04"/><path d="m58 16.813v26.187h-25a20 20 0 0 1 -20-20v-10h-3a4 4 0 0 0 -4 4v28a4 4 0 0 0 4 4h44.019a4 4 0 0 0 4-4v-28c0-.064-.019-.124-.019-.187z" fill="#cd76f2"/><path d="m19 57 4-8h18z" fill="#f28704"/><path d="m14 57h-1a2 2 0 0 0 -2 2v2h42v-2h-37a2 2 0 0 1 -2-2z" fill="#f5af0b"/><path d="m13 45h39v4h-39z" fill="#f2ca04"/><path d="m6 21h18v14h-18z" fill="#f48bbc"/><path d="m6 21v14h11.027a19.885 19.885 0 0 1 -4.027-12v-2z" fill="#f24193"/><path d="m12 31v-6l6 3z" fill="#f2ca04"/><path d="m13.187 25.594-1.187-.594v6l2.24-1.12a19.872 19.872 0 0 1 -1.053-4.286z" fill="#f5af0b"/><path d="m34 29h14a4 4 0 0 1 4 4v12a0 0 0 0 1 0 0h-22a0 0 0 0 1 0 0v-12a4 4 0 0 1 4-4z" fill="#f48bbc"/><path d="m38 25h6a0 0 0 0 1 0 0v5a3 3 0 0 1 -3 3 3 3 0 0 1 -3-3v-5a0 0 0 0 1 0 0z" fill="#f5af0b"/><path d="m38 30a2.945 2.945 0 0 0 .1.732 6.943 6.943 0 0 0 5.9-.992v-4.74h-6z" fill="#f28704"/><path d="m34 15h14a0 0 0 0 1 0 0v7a7 7 0 0 1 -7 7 7 7 0 0 1 -7-7v-7a0 0 0 0 1 0 0z" fill="#f2ca04"/><path d="m29 7h14a5 5 0 0 1 5 5v3a0 0 0 0 1 0 0h-14a5 5 0 0 1 -5-5v-3a0 0 0 0 1 0 0z" fill="#f48bbc"/><path d="m32 15h2a0 0 0 0 1 0 0v6a0 0 0 0 1 0 0h-2a2 2 0 0 1 -2-2v-2a2 2 0 0 1 2-2z" fill="#f24193"/><path d="m48 15h2a2 2 0 0 1 2 2v2a2 2 0 0 1 -2 2h-2a0 0 0 0 1 0 0v-6a0 0 0 0 1 0 0z" fill="#f24193"/><path d="m42 23c0 1.105-.9 3-2 3s-2-1.895-2-3 .9-1 2-1 2-.1 2 1z" fill="#bf037d"/><path d="m40 24a1.989 1.989 0 0 0 -1.518.711c.367.705.907 1.289 1.518 1.289s1.151-.584 1.518-1.289a1.989 1.989 0 0 0 -1.518-.711z" fill="#f24193"/><path d="m50 17v-2h-2v6h2a2 2 0 0 0 1.846-1.232 3 3 0 0 1 -1.846-2.768z" fill="#bf037d"/><path d="m32 17v-2h2v6h-2a2 2 0 0 1 -1.846-1.232 3 3 0 0 0 1.846-2.768z" fill="#bf037d"/><path d="m32.09 7h-3.09v3a5 5 0 0 0 5 5h14v-3h-10a6 6 0 0 1 -5.91-5z" fill="#f24193"/><path d="m37 22a4 4 0 0 1 4-4h7v-3h-14v7a6.99 6.99 0 0 0 8.5 6.835 7 7 0 0 1 -5.5-6.835z" fill="#f5af0b"/><path d="m35 33v-4h-1a4 4 0 0 0 -4 4v12h22v-4h-9a8 8 0 0 1 -8-8z" fill="#f24193"/><path d="m47 37a0 0 0 0 1 0 0v7a0 0 0 0 1 0 0h-2a0 0 0 0 1 0 0v-5a2 2 0 0 1 2-2z" fill="#f24193"/><path d="m34 43a20.047 20.047 0 0 1 -4-.4v2.4h22v-2z" fill="#bf037d"/><path d="m35 37a0 0 0 0 1 0 0v7a0 0 0 0 1 0 0h-2a0 0 0 0 1 0 0v-5a2 2 0 0 1 2-2z" fill="#bf037d"/><path d="m16 45h-3v4h39v-2h-34a2 2 0 0 1 -2-2z" fill="#f5af0b"/><path d="m10 21h-4v14h18v-3h-3a11 11 0 0 1 -11-11z" fill="#f24193"/><path d="m10 21h-4v14h11.027a20.143 20.143 0 0 1 -2.9-5.42 10.976 10.976 0 0 1 -4.127-8.58z" fill="#bf037d"/><path d="m12 27.313v3.687l2.412-1.206a11.048 11.048 0 0 1 -2.412-2.481z" fill="#f28704"/><g fill="#230135"><path d="m58 40a1 1 0 0 0 1-1v-22a5.006 5.006 0 0 0 -5-5h-1.051a11.01 11.01 0 0 0 -10.949-10h-2a10.888 10.888 0 0 0 -8.448 4h-2.552a1 1 0 0 0 -1 1v3a5.991 5.991 0 0 0 2.185 4.628 2.986 2.986 0 0 0 -1.185 2.372v2a3 3 0 0 0 3 3h1a7.976 7.976 0 0 0 2.726 6h-1.726a5.006 5.006 0 0 0 -5 5v8a1 1 0 0 0 2 0v-8a3 3 0 0 1 3-3h3a4 4 0 0 0 8 0h3a3 3 0 0 1 3 3v11h-3v-6a1 1 0 0 0 -2 0v6h-10v-6a1 1 0 0 0 -2 0v6h-21a1 1 0 0 0 0 2h38v2h-41a3 3 0 0 1 -3-3v-23h16v12h-13a1 1 0 0 0 0 2h14a1 1 0 0 0 1-1v-14a1 1 0 0 0 -1-1h-17v-3a3 3 0 0 1 3-3 1 1 0 0 0 0-2 5.006 5.006 0 0 0 -5 5v28a5.006 5.006 0 0 0 5 5h11.382l-3 6h-5.382a3 3 0 0 0 -3 3v2a1 1 0 0 0 1 1h42a1 1 0 0 0 1-1v-2a3 3 0 0 0 -3-3h-5.382l-3-6h11.382a5.006 5.006 0 0 0 5-5v-2a1 1 0 0 0 -2 0v2a3 3 0 0 1 -3 3h-1v-15a5.006 5.006 0 0 0 -5-5h-1.726a8.051 8.051 0 0 0 1.367-1.546l.166.027a4 4 0 0 0 4.617-3.381l.487-3.407c.035-.148.076-.57.077-.579 0-.039.012-.076.012-.116v-4.998h1a3 3 0 0 1 3 3v22a1 1 0 0 0 1 1zm-6 19v1h-40v-1a1 1 0 0 1 1-1h38a1 1 0 0 1 1 1zm-8.618-3h-22.764l3-6h16.764zm6.618-36h-1v-4h1a1 1 0 0 1 1 1v1.93l-.034.238a.987.987 0 0 1 -.966.832zm-10-16h2a9.01 9.01 0 0 1 9 9v1.184a2.966 2.966 0 0 0 -1-.184h-1v-2a6.006 6.006 0 0 0 -6-6h-8.639a8.894 8.894 0 0 1 5.639-2zm-10 4h13a4 4 0 0 1 4 4v2h-13a4 4 0 0 1 -4-4zm2 12a1 1 0 0 1 -1-1v-2a1 1 0 0 1 1-1h1v4zm9 12a2 2 0 0 1 -2-2v-.263a7.736 7.736 0 0 0 4 0v.263a2 2 0 0 1 -2 2zm0-4a6.006 6.006 0 0 1 -6-6v-6h12v6a5.973 5.973 0 0 1 -.44 2.246l-1.4-.232a1 1 0 0 0 -.33 1.972l.553.092a5.977 5.977 0 0 1 -4.383 1.922zm8.646-3.85a1.971 1.971 0 0 1 -1.062.379 7.962 7.962 0 0 0 .416-2.529h1a3.041 3.041 0 0 0 .569-.057l-.125.875a1.987 1.987 0 0 1 -.798 1.332z"/><path d="m12 32a1 1 0 0 0 .447-.105l6-3a1 1 0 0 0 0-1.79l-6-3a1 1 0 0 0 -1.447.895v6a1 1 0 0 0 1 1zm1-5.382 2.764 1.382-2.764 1.382z"/><path d="m25 12a4 4 0 0 0 -4 4 1 1 0 0 0 2 0 2 2 0 0 1 2-2 1 1 0 0 0 0-2z"/><path d="m25 8a8.009 8.009 0 0 0 -8 8 1 1 0 0 0 2 0 6.006 6.006 0 0 1 6-6 1 1 0 0 0 0-2z"/><path d="m14 17a1 1 0 0 0 1-1 10.011 10.011 0 0 1 10-10 1 1 0 0 0 0-2 12.013 12.013 0 0 0 -12 12 1 1 0 0 0 1 1z"/><circle cx="37" cy="19" r="1"/><circle cx="43" cy="19" r="1"/><path d="m40.256 21h-.512a2.873 2.873 0 0 0 -2.213.575 1.93 1.93 0 0 0 -.531 1.425c0 1.593 1.2 4 3 4s3-2.407 3-4a1.93 1.93 0 0 0 -.531-1.426 2.893 2.893 0 0 0 -2.213-.574zm-.256 4c-.321-.043-.994-1.164-1-1.982a6.32 6.32 0 0 1 .728-.018h.544a6.32 6.32 0 0 1 .728.019c-.009.817-.682 1.938-1 1.981z"/></g></g></svg>