<svg id="Capa_1" enable-background="new 0 0 512 512" height="512" viewBox="0 0 512 512" width="512" xmlns="http://www.w3.org/2000/svg"><g><g><path d="m440.405 401.011-207.086-207.085c-3.124-3.124-3.124-8.19 0-11.314l28.479-28.479c3.124-3.124 8.19-3.124 11.314 0l207.085 207.085c3.124 3.124 3.124 8.19 0 11.314l-28.479 28.479c-3.124 3.124-8.189 3.124-11.313 0z" fill="#b3e59f"/></g><g><path d="m480.33 361.351-11.363-11.363-17.38 17.38c-3.051 3.051-7.998 3.051-11.049 0l-195.987-195.987-11.363 11.363c-3.051 3.051-3.051 7.998 0 11.049l207.35 207.35c3.051 3.051 7.998 3.051 11.049 0l28.743-28.743c3.051-3.051 3.051-7.998 0-11.049z" fill="#95d6a4"/></g><g><path d="m378.965 502.174h-274.884c-4.971 0-9-4.029-9-9v-147.435c0-4.971 4.029-9 9-9h274.884c4.971 0 9 4.029 9 9v147.435c0 4.97-4.029 9-9 9z" fill="#b3e59f"/></g><g><path d="m378.965 336.739h-24.396v122.923c0 5.035-4.082 9.116-9.116 9.116h-250.372v24.396c0 4.971 4.029 9 9 9h274.884c4.971 0 9-4.029 9-9v-147.435c0-4.971-4.029-9-9-9z" fill="#95d6a4"/></g><g><path d="m212.526 336.739h57.994v165.435h-57.994z" fill="#ffe07d"/></g><g><g><path d="m367.642 266.679-5.333-16.373c-.197-.607-4.88-15.054-8.547-32.214-7.241-33.89-4.025-47.365-.975-54.552 11.623-27.392 43.365-40.22 70.756-28.596 27.392 11.623 40.22 43.365 28.596 70.756-3.05 7.187-10.506 18.863-39.91 37.202-14.889 9.285-28.533 15.955-29.107 16.236zm44.193-104.144c-12.178-5.168-26.289.536-31.457 12.714-2.768 6.522.103 26.921 5.068 46.932.193.779 1.08 1.161 1.776.761 2.972-1.709 6.143-3.593 9.354-5.6 23.895-14.932 27.627-22.532 27.974-23.349 5.166-12.179-.537-26.291-12.715-31.458z" fill="#e7a561"/></g></g><g><g><path d="m423.543 134.944c-2.904-1.232-5.859-2.174-8.832-2.868 21.627 13.959 30.788 41.91 20.397 66.397-3.05 7.187-10.506 18.863-39.91 37.202-14.889 9.285-28.533 15.955-29.107 16.236l-2.813 1.37 4.364 13.398 15.481-7.541c.574-.28 14.218-6.95 29.107-16.236 29.405-18.339 36.861-30.015 39.91-37.202 11.623-27.392-1.206-59.133-28.597-70.756z" fill="#e4936b"/></g></g><g><g><g><path d="m368.044 267.387 7.807-15.348c.29-.569 7.194-14.096 16.735-28.822 18.843-29.084 30.646-36.338 37.885-39.263 27.588-11.15 59.103 2.224 70.253 29.811 11.15 27.588-2.224 59.103-29.811 70.253-7.238 2.925-20.767 5.91-54.527-1.915-17.094-3.962-31.458-8.894-32.062-9.101zm104.89-42.392c-4.957-12.265-18.968-18.211-31.233-13.254-6.526 2.638-18.803 18.896-29.395 36.426-.521.862-.063 1.983.91 2.244 3.197.859 6.633 1.73 10.174 2.547 27.455 6.338 35.467 3.603 36.291 3.27 12.264-4.957 18.21-18.968 13.253-31.233z" fill="#ffd064"/></g></g></g><g><path d="m500.723 213.764c-4.038-9.991-10.755-18.105-18.981-23.877 2.304 3.287 4.286 6.872 5.853 10.75 11.15 27.588-2.224 59.103-29.811 70.253-7.238 2.925-20.767 5.91-54.527-1.915-15.412-3.572-28.601-7.931-31.49-8.907l-3.723 7.319 16.279 5.614c.604.207 14.968 5.139 32.062 9.101 33.76 7.824 47.289 4.84 54.527 1.915 27.587-11.15 40.96-42.665 29.811-70.253z" fill="#e7a561"/></g><g><path d="m328.621 248.575h56.275v57.994h-56.275z" fill="#ffe07d" transform="matrix(.707 -.707 .707 .707 -91.781 333.565)"/></g><g><path d="m212.526 468.778h57.994v33.396h-57.994z" fill="#ffd064"/></g><g><path d="m333.365 260.027h23.883v57.994h-23.883z" fill="#ffd064" transform="matrix(.707 -.707 .707 .707 -103.233 328.822)"/></g><g><path d="m84.342 208.255 13.684 4.623c1.436.485 1.436 2.516 0 3.001l-13.684 4.623c-3.495 1.181-6.239 3.925-7.42 7.42l-4.623 13.684c-.485 1.436-2.516 1.436-3.001 0l-4.623-13.684c-1.181-3.495-3.925-6.239-7.42-7.42l-13.684-4.623c-1.436-.485-1.436-2.516 0-3.001l13.684-4.623c3.495-1.181 6.239-3.925 7.42-7.42l4.623-13.684c.485-1.436 2.516-1.436 3.001 0l4.623 13.684c1.18 3.495 3.924 6.239 7.42 7.42z" fill="#ffe07d"/></g><g><path d="m49.173 283.899 13.684 4.623c1.436.485 1.436 2.516 0 3.001l-13.684 4.623c-3.495 1.181-6.239 3.925-7.42 7.42l-4.623 13.684c-.485 1.436-2.516 1.436-3.001 0l-4.623-13.684c-1.181-3.495-3.925-6.239-7.42-7.42l-13.684-4.623c-1.436-.485-1.436-2.516 0-3.001l13.684-4.623c3.495-1.181 6.239-3.925 7.42-7.42l4.623-13.684c.485-1.436 2.516-1.436 3.001 0l4.623 13.684c1.181 3.495 3.925 6.239 7.42 7.42z" fill="#ffe07d"/></g><g><path d="m244.443 280.666 13.684 4.623c1.436.485 1.436 2.516 0 3.001l-13.684 4.623c-3.495 1.181-6.239 3.925-7.42 7.42l-4.623 13.684c-.485 1.436-2.516 1.436-3.001 0l-4.623-13.684c-1.181-3.495-3.925-6.239-7.42-7.42l-13.684-4.623c-1.436-.485-1.436-2.516 0-3.001l13.684-4.623c3.495-1.181 6.239-3.925 7.42-7.42l4.623-13.684c.485-1.436 2.516-1.436 3.001 0l4.623 13.684c1.181 3.495 3.925 6.239 7.42 7.42z" fill="#ffe07d"/></g><g fill="#ffd064"><path d="m98.026 212.878-13.684-4.623c-3.495-1.181-6.239-3.925-7.42-7.42l-4.623-13.684c-.485-1.436-2.516-1.436-3.001 0l-4.623 13.684c-1.181 3.495-3.925 6.239-7.42 7.42l-.042.014 13.641 4.609c1.436.485 1.436 2.516 0 3.001l-13.641 4.609.042.014c3.495 1.181 6.239 3.925 7.42 7.42l4.623 13.684c.485 1.436 2.516 1.436 3.001 0l4.623-13.684c1.181-3.495 3.925-6.239 7.42-7.42l13.684-4.623c1.435-.485 1.435-2.516 0-3.001z"/><path d="m62.857 288.522-13.684-4.623c-3.495-1.181-6.239-3.925-7.42-7.42l-4.623-13.684c-.485-1.436-2.516-1.436-3.001 0l-4.623 13.684c-1.181 3.495-3.925 6.239-7.42 7.42l-.042.014 13.641 4.609c1.436.485 1.436 2.516 0 3.001l-13.641 4.609.042.014c3.495 1.181 6.239 3.925 7.42 7.42l4.623 13.684c.485 1.436 2.516 1.436 3.001 0l4.623-13.684c1.181-3.495 3.925-6.239 7.42-7.42l13.684-4.623c1.436-.485 1.436-2.516 0-3.001z"/><path d="m258.127 285.29-13.684-4.623c-3.495-1.181-6.239-3.925-7.42-7.42l-4.623-13.684c-.485-1.436-2.516-1.436-3.001 0l-4.623 13.684c-1.181 3.495-3.925 6.239-7.42 7.42l-.042.014 13.641 4.609c1.436.485 1.436 2.516 0 3.001l-13.641 4.609.042.014c3.495 1.181 6.239 3.925 7.42 7.42l4.623 13.684c.485 1.436 2.516 1.436 3.001 0l4.623-13.684c1.181-3.495 3.925-6.239 7.42-7.42l13.684-4.623c1.436-.485 1.436-2.516 0-3.001z"/></g><g><g><g><path d="m161.89 177.997-22.118 38.31c-1.924 3.333.481 7.5 4.33 7.5h35.576c3.849 0 6.255-4.167 4.33-7.5z" fill="#e28086"/></g></g><g><path d="m167.21 223.807h12.469c3.849 0 6.255-4.167 4.33-7.5l-22.118-38.31-10.564 18.298z" fill="#dd636e"/></g></g><g><path d="m281.599 71.06c-1.298-32.883-27.999-59.64-60.879-61.003-24.181-1.002-45.521 11.499-57.117 30.577-.786 1.294-2.639 1.294-3.426 0-11.596-19.08-32.938-31.58-57.119-30.577-32.88 1.364-59.58 28.124-60.876 61.006-1.005 25.509 13.011 47.847 33.917 58.884 17.648 9.218 34.051 20.688 48.666 34.198 5.185 4.596 10.149 9.428 14.884 14.474 5.765 6.143 13.816 9.624 22.241 9.624 8.425 0 16.475-3.481 22.241-9.624 4.735-5.045 9.699-9.877 14.884-14.473 14.617-13.511 31.018-24.98 48.667-34.198 20.907-11.039 34.924-33.378 33.917-58.888z" fill="#e28086"/></g><g><g><path d="m281.599 71.06c-1.298-32.882-27.999-59.64-60.879-61.003-2.109-.087-4.195-.064-6.256.049 11.378 11.035 18.695 26.237 19.358 43.051 1.007 25.51-13.01 47.849-33.917 58.887-17.649 9.219-34.051 20.688-48.667 34.198-5.185 4.596-10.149 9.428-14.884 14.473-2.443 2.603-5.299 4.722-8.418 6.307 4.044 3.725 7.954 7.59 11.713 11.596 5.765 6.143 13.816 9.624 22.241 9.624s16.475-3.481 22.241-9.624c4.735-5.045 9.699-9.877 14.884-14.473 14.617-13.511 31.018-24.98 48.667-34.198 20.907-11.038 34.924-33.377 33.917-58.887z" fill="#dd636e"/></g></g><g><path d="m106.427 214.379c0-3.823-2.433-7.215-6.057-8.44l-13.684-4.623c-1.322-.447-2.378-1.503-2.825-2.825l-4.624-13.686c-1.225-3.622-4.616-6.055-8.44-6.055s-7.215 2.433-8.44 6.057l-4.623 13.684c-.447 1.322-1.503 2.378-2.825 2.825l-13.686 4.624c-3.622 1.225-6.055 4.616-6.055 8.44s2.433 7.215 6.057 8.44l13.684 4.623c1.322.447 2.378 1.503 2.825 2.825l4.624 13.684c1.224 3.623 4.616 6.057 8.44 6.057s7.215-2.434 8.44-6.057l4.623-13.684c.447-1.322 1.503-2.378 2.825-2.825l13.686-4.624c3.622-1.225 6.055-4.617 6.055-8.44zm-35.629 9.179c-1.896-4.014-5.165-7.283-9.18-9.18 4.015-1.896 7.283-5.166 9.18-9.18 1.896 4.015 5.165 7.283 9.18 9.18-4.015 1.898-7.284 5.166-9.18 9.18z"/><path d="m65.202 281.583-13.684-4.623c-1.322-.447-2.378-1.503-2.825-2.825l-4.623-13.684c-1.224-3.623-4.616-6.058-8.44-6.058s-7.216 2.434-8.44 6.057l-4.623 13.683c-.447 1.323-1.504 2.379-2.826 2.826l-13.683 4.623c-3.624 1.224-6.058 4.616-6.058 8.441 0 3.824 2.434 7.216 6.057 8.44l13.684 4.623c1.322.447 2.379 1.504 2.826 2.826l4.623 13.683c1.224 3.623 4.616 6.058 8.44 6.058s7.216-2.434 8.44-6.057l4.623-13.684c.447-1.322 1.503-2.379 2.825-2.825l13.684-4.623c3.623-1.224 6.058-4.616 6.058-8.44-.001-3.826-2.436-7.218-6.058-8.441zm-29.573 17.619c-1.896-4.014-5.165-7.282-9.179-9.179 4.014-1.896 7.282-5.165 9.179-9.179 1.897 4.014 5.165 7.282 9.179 9.179-4.013 1.897-7.282 5.165-9.179 9.179z"/><path d="m215.01 273.727-13.685 4.624c-3.622 1.225-6.055 4.616-6.055 8.44s2.433 7.215 6.057 8.44l13.684 4.623c1.322.447 2.378 1.503 2.825 2.825l4.624 13.683c1.224 3.623 4.616 6.058 8.44 6.058s7.216-2.434 8.44-6.057l4.623-13.684c.447-1.322 1.503-2.378 2.825-2.825l13.686-4.624c3.622-1.225 6.055-4.616 6.055-8.44s-2.433-7.215-6.057-8.44l-13.684-4.623c-1.322-.447-2.378-1.503-2.825-2.825l-4.623-13.684c-1.224-3.623-4.616-6.058-8.44-6.058s-7.216 2.434-8.44 6.057l-4.624 13.685c-.447 1.322-1.503 2.378-2.826 2.825zm15.889 3.884c1.896 4.015 5.165 7.283 9.18 9.18-4.015 1.896-7.283 5.165-9.18 9.18-1.897-4.015-5.165-7.283-9.18-9.18 4.014-1.897 7.283-5.166 9.18-9.18z"/><path d="m479.725 222.25c-6.471-16.009-24.76-23.77-40.769-17.3-10.86 4.389-26.64 29.036-32.92 39.429-1.427 2.362-1.664 5.302-.634 7.864 1.032 2.565 3.242 4.525 5.914 5.243 18.023 4.59 38.637 9.388 51.109 5.533 16.009-6.47 23.77-24.759 17.3-40.769zm-22.637 27.125c-.752.188-8.631 1.854-32.051-3.554-.76-.175-1.529-.357-2.308-.544 10.649-16.606 18.924-25.586 21.716-26.745 8.522-3.444 18.254.686 21.698 9.207 3.423 8.469-.637 18.137-9.055 21.636z"/><path d="m507.514 211.019c-7.997-19.788-25.223-33.126-44.722-37.087-3.609-20.351-17.168-37.576-36.388-45.732-15.048-6.385-31.704-6.522-46.897-.38-15.193 6.14-27.077 17.81-33.464 32.859-3.622 8.536-6.843 22.602-.065 55.962l-67.819-67.819c-5.902-5.902-15.506-5.902-21.408 0l-28.743 28.744c-2.859 2.859-4.434 6.66-4.434 10.704s1.575 7.845 4.434 10.704l38.694 38.695c2.86 2.86 7.498 2.86 10.359 0s2.861-7.498 0-10.359l-38.694-38.694c-.19-.19-.19-.5 0-.691l28.743-28.743c.19-.19.5-.191.691 0l77.992 77.992-29.434 29.434-13.511-13.511c-2.86-2.86-7.498-2.86-10.359 0s-2.861 7.498 0 10.359l65.96 65.96h-254.251c-9.066 0-16.441 7.375-16.441 16.441v147.202c0 9.066 7.375 16.441 16.441 16.441h274.651c9.066 0 16.441-7.375 16.441-16.441v-126.805l40.068 40.068c2.951 2.951 6.827 4.427 10.704 4.427 3.876 0 7.753-1.475 10.704-4.427l28.744-28.744c5.902-5.902 5.902-15.505 0-21.407l-65.836-65.836c14.087 3.011 24.636 4.121 32.74 4.121 10.203 0 16.547-1.751 21.242-3.648 15.157-6.125 27.03-17.807 33.431-32.892s6.552-31.74.427-46.897zm-147.985-44.618c4.857-11.447 13.902-20.325 25.467-24.999s24.239-4.573 35.685.285c13.439 5.702 23.22 17.245 26.855 31.103-5.044.255-10.116 1.145-15.114 2.71-2.652-8.731-9.036-16.02-17.727-19.708-7.69-3.263-16.201-3.334-23.963-.196-7.762 3.137-13.834 9.1-17.098 16.791-4.607 10.858 1.753 39.672 4.701 51.555.406 1.637 1.297 3.104 2.516 4.228-3.56 5.893-6.482 11.111-8.507 14.838l-6.481-6.481c-1.906-6.855-3.572-13.569-4.939-19.965-7.595-35.548-2.928-46.547-1.395-50.161zm59.366 15.493c-7.087 4.807-16.033 13.393-27.615 30.111-.309.191-.534.329-.601.37-4.159-19.107-4.683-31.543-3.559-34.265 3.59-8.46 13.395-12.421 21.853-8.832 5.312 2.253 8.997 7.04 9.922 12.616zm-61.529 125.72-30.65-30.65 29.434-29.434 30.649 30.65zm-152.165 187.235h-101.003c-.988 0-1.792-.803-1.792-1.792v-147.202c0-.988.803-1.792 1.792-1.792h101.003zm175.439-1.792c0 .988-.804 1.792-1.792 1.792h-101.003v-75.393c0-4.045-3.279-7.325-7.325-7.325-4.045 0-7.325 3.279-7.325 7.325v75.393h-43.345v-150.786h43.345v40.906c0 4.045 3.279 7.325 7.325 7.325 4.045 0 7.325-3.279 7.325-7.325v-40.906h95.254l7.542 7.542v141.452zm94.511-126.527c.035.035.143.143.143.345s-.107.31-.143.345l-28.744 28.744c-.035.035-.143.143-.345.143s-.31-.107-.345-.143l-77.992-77.992 29.434-29.434zm18.45-114.337c-4.873 11.483-13.905 20.373-25.435 25.032-3.64 1.471-14.719 5.947-50.128-2.259-5.985-1.387-12.258-3.05-18.659-4.925l-16.208-16.209c2.076-3.956 7.993-14.952 15.561-26.635 19.766-30.508 30.842-34.984 34.482-36.455 23.842-9.636 51.081 1.921 60.718 25.765 4.659 11.53 4.541 24.203-.331 35.686z"/><path d="m72.626 136.595c17.216 8.992 33.045 20.114 47.048 33.057.038.036.077.07.116.105 4.963 4.399 9.804 9.107 14.391 13.994 3.174 3.382 6.929 6.12 11.037 8.123l-11.941 20.683c-2.26 3.914-2.259 8.586 0 12.5s6.306 6.25 10.825 6.25h8.234c-.298 1.476-.485 3.156-.485 5.102 0 6.456 2.032 10.039 3.516 12.655 1.073 1.892 1.563 2.756 1.563 5.254 0 2.499-.49 3.362-1.563 5.254-1.484 2.616-3.516 6.198-3.516 12.654s2.032 10.039 3.516 12.655c1.073 1.893 1.563 2.756 1.563 5.255 0 4.142 3.358 7.5 7.5 7.5s7.5-3.358 7.5-7.5c0-6.456-2.032-10.039-3.516-12.655-1.073-1.893-1.563-2.756-1.563-5.255 0-2.498.49-3.362 1.563-5.254 1.484-2.616 3.516-6.199 3.516-12.655s-2.032-10.038-3.516-12.654c-1.073-1.892-1.563-2.756-1.563-5.254 0-2.427.467-3.319 1.477-5.102h11.35c4.519 0 8.565-2.336 10.825-6.25 2.259-3.914 2.259-8.586 0-12.5l-11.941-20.683c4.108-2.004 7.864-4.741 11.037-8.123 4.584-4.884 9.425-9.592 14.39-13.994.039-.035.078-.069.116-.104 14.002-12.943 29.832-24.065 47.078-33.074 24.476-12.921 39.002-38.141 37.91-65.815-1.449-36.722-31.346-66.679-68.063-68.201-23.133-.963-45.112 9.379-59.14 27.372-14.029-17.994-36.007-28.327-59.144-27.371-36.716 1.523-66.611 31.482-68.059 68.205-1.091 27.672 13.435 52.89 37.939 65.826zm75.806 79.712 11.896-20.605c1.039.052 2.085.052 3.123 0l11.897 20.605zm-98.757-144.948c1.142-28.971 24.727-52.607 53.693-53.808 20.465-.849 39.77 9.489 50.399 26.977 1.74 2.865 4.776 4.576 8.121 4.577h.002c3.344 0 6.379-1.709 8.122-4.575 10.63-17.49 29.951-27.824 50.397-26.979 28.966 1.201 52.552 24.834 53.696 53.805.862 21.85-10.604 41.759-29.895 51.943-18.368 9.595-35.268 21.466-50.229 35.286-5.287 4.69-10.44 9.703-15.319 14.901-4.328 4.611-10.441 7.256-16.772 7.256s-12.444-2.645-16.772-7.257c-4.882-5.201-10.036-10.214-15.32-14.902-14.962-13.82-31.86-25.69-50.198-35.269-19.319-10.199-30.786-30.106-29.925-51.955z"/></g></g></svg>