<?xml version="1.0" encoding="iso-8859-1"?>
<!-- Generator: Adobe Illustrator 19.0.0, SVG Export Plug-In . SVG Version: 6.00 Build 0)  -->
<svg version="1.1" id="Capa_1" xmlns="http://www.w3.org/2000/svg" xmlns:xlink="http://www.w3.org/1999/xlink" x="0px" y="0px"
	 viewBox="0 0 512 512" style="enable-background:new 0 0 512 512;" xml:space="preserve">
<path style="fill:#EFEFEF;" d="M101.995,7.5c-25.634,0-46.488,20.854-46.488,46.488v404.024c0,25.634,20.854,46.488,46.488,46.488
	h133.749V7.5H101.995z"/>
<path style="fill:#DDDDDD;" d="M83.2,458.012V53.987c0-25.634,20.854-46.488,46.488-46.488h-27.693
	c-25.634,0-46.488,20.854-46.488,46.488v404.024c0,25.634,20.854,46.488,46.488,46.488h27.693
	C104.054,504.5,83.2,483.645,83.2,458.012z"/>
<path style="fill:#535454;" d="M106.701,33.433L106.701,33.433c-12.926,0-23.501,10.576-23.501,23.501v55.003
	c0,12.926,10.576,23.501,23.501,23.501l0,0c12.926,0,23.501-10.576,23.501-23.501V56.934
	C130.203,44.01,119.627,33.433,106.701,33.433z"/>
<path style="fill:#444443;" d="M106.701,111.939V56.935c0-8.652,4.741-16.245,11.751-20.324C102.841,27.526,83.2,38.947,83.2,56.935
	v55.003c0,17.978,19.631,29.416,35.252,20.324C111.444,128.183,106.701,120.589,106.701,111.939z"/>
<path style="fill:#535454;" d="M410.269,7.5H235.744c-25.634,0-46.488,20.854-46.488,46.488v404.024
	c0,25.634,20.854,46.488,46.488,46.488h174.525c25.634,0,46.488-20.854,46.488-46.488V53.988
	C456.756,28.355,435.901,7.5,410.269,7.5z"/>
<path style="fill:#444443;" d="M215.008,458.012V53.987c0-25.634,20.854-46.488,46.488-46.488h-25.752
	c-25.634,0-46.488,20.854-46.488,46.488v404.024c0,25.634,20.854,46.488,46.488,46.488h25.752
	C235.862,504.5,215.008,483.645,215.008,458.012z"/>
<path style="fill:#A4D9F4;" d="M431,458.012c0,11.45-9.282,20.731-20.731,20.731H235.744c-11.45,0-20.731-9.282-20.731-20.731
	V53.988c0-11.45,9.282-20.731,20.731-20.731h21.75c4.284,0,7.757,3.473,7.757,7.757v4.92c0,6.6,5.4,12.001,12.001,12.001h91.506
	c6.6,0,12.001-5.4,12.001-12.001v-7.115c0-3.072,2.49-5.562,5.562-5.562h23.946c11.45,0,20.731,9.282,20.731,20.731L431,458.012
	L431,458.012z"/>
<path style="fill:#7CC9E8;" d="M239.745,458.012V53.988c0-10.828,8.305-19.705,18.89-20.638c-1.205-0.178,0.077-0.054-22.89-0.093
	c-11.45,0-20.731,9.282-20.731,20.731v404.023c0,11.45,9.282,20.731,20.731,20.731h24.731
	C249.027,478.743,239.745,469.461,239.745,458.012z"/>
<path style="fill:#70B5E8;" d="M263.274,118.318h-20.07c-1.84,0-3.345-1.505-3.345-3.345v-20.07c0-1.84,1.505-3.345,3.345-3.345
	h20.07c1.84,0,3.345,1.505,3.345,3.345v20.07C266.618,116.813,265.113,118.318,263.274,118.318z"/>
<path style="fill:#EFEFEF;" d="M310.524,118.318h-20.07c-1.84,0-3.345-1.505-3.345-3.345v-20.07c0-1.84,1.505-3.345,3.345-3.345
	h20.07c1.84,0,3.345,1.505,3.345,3.345v20.07C313.868,116.813,312.363,118.318,310.524,118.318z"/>
<path style="fill:#92B620;" d="M357.774,118.318h-20.07c-1.84,0-3.345-1.505-3.345-3.345v-20.07c0-1.84,1.505-3.345,3.345-3.345
	h20.07c1.84,0,3.345,1.505,3.345,3.345v20.07C361.119,116.813,359.613,118.318,357.774,118.318z"/>
<path style="fill:#898989;" d="M405.024,118.318h-20.07c-1.84,0-3.345-1.505-3.345-3.345v-20.07c0-1.84,1.505-3.345,3.345-3.345
	h20.07c1.84,0,3.345,1.505,3.345,3.345v20.07C408.369,116.813,406.863,118.318,405.024,118.318z"/>
<path style="fill:#92B620;" d="M263.274,166.034h-20.07c-1.84,0-3.345-1.505-3.345-3.345v-20.07c0-1.84,1.505-3.345,3.345-3.345
	h20.07c1.84,0,3.345,1.505,3.345,3.345v20.07C266.618,164.529,265.113,166.034,263.274,166.034z"/>
<path style="fill:#898989;" d="M310.524,166.034h-20.07c-1.84,0-3.345-1.505-3.345-3.345v-20.07c0-1.84,1.505-3.345,3.345-3.345
	h20.07c1.84,0,3.345,1.505,3.345,3.345v20.07C313.868,164.529,312.363,166.034,310.524,166.034z"/>
<path style="fill:#70B5E8;" d="M357.774,166.034h-20.07c-1.84,0-3.345-1.505-3.345-3.345v-20.07c0-1.84,1.505-3.345,3.345-3.345
	h20.07c1.84,0,3.345,1.505,3.345,3.345v20.07C361.119,164.529,359.613,166.034,357.774,166.034z"/>
<path style="fill:#F94A46;" d="M405.024,166.034h-20.07c-1.84,0-3.345-1.505-3.345-3.345v-20.07c0-1.84,1.505-3.345,3.345-3.345
	h20.07c1.84,0,3.345,1.505,3.345,3.345v20.07C408.369,164.529,406.863,166.034,405.024,166.034z"/>
<path style="fill:#DDA36F;" d="M263.274,214.37h-20.07c-1.84,0-3.345-1.505-3.345-3.345v-20.07c0-1.84,1.505-3.345,3.345-3.345
	h20.07c1.84,0,3.345,1.505,3.345,3.345v20.07C266.618,212.865,265.113,214.37,263.274,214.37z"/>
<path style="fill:#F9D698;" d="M310.524,214.37h-20.07c-1.84,0-3.345-1.505-3.345-3.345v-20.07c0-1.84,1.505-3.345,3.345-3.345
	h20.07c1.84,0,3.345,1.505,3.345,3.345v20.07C313.868,212.865,312.363,214.37,310.524,214.37z"/>
<path style="fill:#898989;" d="M357.774,214.37h-20.07c-1.84,0-3.345-1.505-3.345-3.345v-20.07c0-1.84,1.505-3.345,3.345-3.345
	h20.07c1.84,0,3.345,1.505,3.345,3.345v20.07C361.119,212.865,359.613,214.37,357.774,214.37z"/>
<path style="fill:#F9D698;" d="M405.024,214.37h-20.07c-1.84,0-3.345-1.505-3.345-3.345v-20.07c0-1.84,1.505-3.345,3.345-3.345
	h20.07c1.84,0,3.345,1.505,3.345,3.345v20.07C408.369,212.865,406.863,214.37,405.024,214.37z"/>
<g>
	<path style="fill:#70B5E8;" d="M263.274,262.086h-20.07c-1.84,0-3.345-1.505-3.345-3.345v-20.07c0-1.84,1.505-3.345,3.345-3.345
		h20.07c1.84,0,3.345,1.505,3.345,3.345v20.07C266.618,260.581,265.113,262.086,263.274,262.086z"/>
	<path style="fill:#70B5E8;" d="M310.524,262.086h-20.07c-1.84,0-3.345-1.505-3.345-3.345v-20.07c0-1.84,1.505-3.345,3.345-3.345
		h20.07c1.84,0,3.345,1.505,3.345,3.345v20.07C313.868,260.581,312.363,262.086,310.524,262.086z"/>
</g>
<path style="fill:#F94A46;" d="M357.774,262.086h-20.07c-1.84,0-3.345-1.505-3.345-3.345v-20.07c0-1.84,1.505-3.345,3.345-3.345
	h20.07c1.84,0,3.345,1.505,3.345,3.345v20.07C361.119,260.581,359.613,262.086,357.774,262.086z"/>
<path style="fill:#EFEFEF;" d="M263.274,309.802h-20.07c-1.84,0-3.345-1.505-3.345-3.345v-20.07c0-1.84,1.505-3.345,3.345-3.345
	h20.07c1.84,0,3.345,1.505,3.345,3.345v20.07C266.618,308.297,265.113,309.802,263.274,309.802z"/>
<path style="fill:#92B620;" d="M310.524,309.802h-20.07c-1.84,0-3.345-1.505-3.345-3.345v-20.07c0-1.84,1.505-3.345,3.345-3.345
	h20.07c1.84,0,3.345,1.505,3.345,3.345v20.07C313.868,308.297,312.363,309.802,310.524,309.802z"/>
<path style="fill:#898989;" d="M357.774,309.802h-20.07c-1.84,0-3.345-1.505-3.345-3.345v-20.07c0-1.84,1.505-3.345,3.345-3.345
	h20.07c1.84,0,3.345,1.505,3.345,3.345v20.07C361.119,308.297,359.613,309.802,357.774,309.802z"/>
<path style="fill:#FFB70D;" d="M405.024,262.086h-20.07c-1.84,0-3.345-1.505-3.345-3.345v-20.07c0-1.84,1.505-3.345,3.345-3.345
	h20.07c1.84,0,3.345,1.505,3.345,3.345v20.07C408.369,260.581,406.863,262.086,405.024,262.086z"/>
<path style="fill:#92B620;" d="M263.274,457.027h-20.07c-1.84,0-3.345-1.505-3.345-3.345v-20.07c0-1.84,1.505-3.345,3.345-3.345
	h20.07c1.84,0,3.345,1.505,3.345,3.345v20.07C266.619,455.522,265.113,457.027,263.274,457.027z"/>
<path style="fill:#70B5E8;" d="M310.524,457.027h-20.07c-1.84,0-3.345-1.505-3.345-3.345v-20.07c0-1.84,1.505-3.345,3.345-3.345
	h20.07c1.84,0,3.345,1.505,3.345,3.345v20.07C313.869,455.522,312.363,457.027,310.524,457.027z"/>
<path style="fill:#92B620;" d="M357.774,457.027h-20.07c-1.84,0-3.345-1.505-3.345-3.345v-20.07c0-1.84,1.505-3.345,3.345-3.345
	h20.07c1.84,0,3.345,1.505,3.345,3.345v20.07C361.119,455.522,359.613,457.027,357.774,457.027z"/>
<path style="fill:#EFEFEF;" d="M405.024,457.027h-20.07c-1.84,0-3.345-1.505-3.345-3.345v-20.07c0-1.84,1.505-3.345,3.345-3.345
	h20.07c1.84,0,3.345,1.505,3.345,3.345v20.07C408.369,455.522,406.863,457.027,405.024,457.027z"/>
<path d="M353.059,40.757c4.143,0,7.5-3.357,7.5-7.5c0-4.142-3.357-7.5-7.5-7.5h-39.16c-4.143,0-7.5,3.358-7.5,7.5
	c0,4.143,3.357,7.5,7.5,7.5H353.059z"/>
<path d="M297.802,33.253c0-0.489-0.05-0.979-0.14-1.46c-0.101-0.479-0.24-0.949-0.431-1.409c-0.189-0.45-0.42-0.891-0.689-1.29
	c-0.271-0.41-0.59-0.801-0.931-1.141c-0.35-0.35-0.729-0.66-1.14-0.93c-0.41-0.271-0.85-0.51-1.3-0.69
	c-0.45-0.189-0.92-0.33-1.4-0.43c-2.439-0.49-5.029,0.311-6.77,2.05c-0.351,0.34-0.66,0.731-0.931,1.141
	c-0.27,0.399-0.51,0.84-0.689,1.29c-0.19,0.46-0.33,0.93-0.43,1.409c-0.101,0.48-0.15,0.971-0.15,1.46c0,1.98,0.8,3.91,2.2,5.311
	C289.731,43.26,297.802,39.945,297.802,33.253z"/>
<path d="M113.501,55.065c-0.416-0.987-0.993-1.811-1.63-2.43c-6.362-6.563-16.484,2.13-11.541,9.461
	c1.224,1.79,2.969,2.846,4.77,3.189c0.49,0.101,0.98,0.15,1.47,0.15s0.981-0.05,1.46-0.15c0.48-0.09,0.96-0.24,1.41-0.42
	c0.45-0.189,0.89-0.42,1.29-0.689c0.41-0.28,0.8-0.591,1.14-0.94c0.35-0.34,0.66-0.73,0.94-1.14c0.27-0.4,0.5-0.841,0.69-1.29
	c0.18-0.45,0.33-0.931,0.42-1.4c0.1-0.49,0.15-0.979,0.15-1.47c0-0.491-0.05-0.98-0.15-1.47
	C113.831,55.994,113.681,55.515,113.501,55.065z"/>
<path d="M110.731,78.196c-0.4-0.27-0.84-0.5-1.29-0.69c-0.46-0.18-0.93-0.329-1.41-0.42c-2.43-0.5-5.02,0.301-6.76,2.051
	c-1.4,1.39-2.2,3.33-2.2,5.3c0,1.97,0.8,3.91,2.2,5.3c1.39,1.4,3.32,2.2,5.3,2.2c0.49,0,0.981-0.05,1.46-0.15
	c0.48-0.09,0.95-0.24,1.41-0.42c0.45-0.189,0.89-0.42,1.29-0.689c0.41-0.28,0.8-0.591,1.14-0.94c1.4-1.39,2.2-3.33,2.2-5.3
	c0-1.97-0.8-3.91-2.2-5.3C111.531,78.786,111.141,78.477,110.731,78.196z"/>
<path d="M113.491,108.069c-0.18-0.45-0.42-0.89-0.69-1.29c-0.27-0.41-0.58-0.8-0.93-1.14c-1.74-1.75-4.33-2.551-6.77-2.051
	c-0.47,0.091-0.95,0.24-1.4,0.42c-0.45,0.19-0.89,0.421-1.29,0.69c-0.42,0.28-0.8,0.59-1.14,0.94c-0.35,0.34-0.66,0.729-0.94,1.14
	c-0.27,0.4-0.5,0.84-0.69,1.29c-0.18,0.45-0.33,0.93-0.42,1.4c-0.1,0.489-0.15,0.979-0.15,1.47c0,1.97,0.8,3.91,2.2,5.3
	c1.39,1.4,3.32,2.2,5.3,2.2c1.97,0,3.91-0.8,5.3-2.2c1.4-1.39,2.2-3.32,2.2-5.3c0-0.49-0.05-0.98-0.15-1.47
	C113.831,108.998,113.681,108.519,113.491,108.069z"/>
<path d="M106.569,25.934c-17.094,0-31.002,13.907-31.002,31.002v55.003c0,17.095,13.908,31.002,31.002,31.002
	s31.002-13.907,31.002-31.002V56.935C137.571,39.84,123.665,25.934,106.569,25.934z M122.57,111.939
	c0,8.823-7.178,16.001-16.001,16.001s-16.001-7.178-16.001-16.001V56.935c0-8.823,7.178-16.001,16.001-16.001
	s16.001,7.178,16.001,16.001V111.939z"/>
<path d="M456.625,410.384c4.143,0,7.5-3.357,7.5-7.5V53.987C464.125,24.219,439.906,0,410.137,0H235.612H101.863
	C72.094,0,47.875,24.219,47.875,53.987v404.024c0,29.769,24.219,53.987,53.988,53.987h10.707c4.142,0,7.5-3.357,7.5-7.5
	s-3.358-7.5-7.5-7.5h-10.707c-21.497,0-38.987-17.489-38.987-38.986V53.987c0-21.497,17.49-38.986,38.987-38.986h96.44
	c-3.442,3.295-6.715,7.363-9.345,11.872c-10.43,17.88-7.307,13.104-7.333,431.14c0,15.25,6.403,29.15,16.678,38.986h-50.731
	c-4.142,0-7.5,3.357-7.5,7.5s3.358,7.5,7.5,7.5c7.735,0,245.085,0,262.565,0c29.769,0,53.987-24.219,53.987-53.987v-20.126
	c0-4.143-3.357-7.5-7.5-7.5c-4.143,0-7.5,3.357-7.5,7.5v20.126c0,21.497-17.489,38.986-38.986,38.986H235.612
	c-21.497,0-38.986-17.489-38.986-38.986V53.988c0-21.497,17.489-38.986,38.986-38.986h174.525c21.497,0,38.986,17.489,38.986,38.986
	v348.896C449.124,407.027,452.481,410.384,456.625,410.384z"/>
<path d="M214.881,127.94c-4.142,0-7.5,3.357-7.5,7.5v322.573c0,15.566,12.665,28.231,28.232,28.231h174.525
	c15.566,0,28.231-12.665,28.231-28.231V53.988c0-15.566-12.665-28.231-28.231-28.231h-29.509c-4.143,0-7.5,3.358-7.5,7.5v12.678
	c0,2.44-2.061,4.5-4.5,4.5h-91.506c-2.439,0-4.5-2.06-4.5-4.5V33.257c0-4.142-3.357-7.5-7.5-7.5h-29.509
	c-15.567,0-28.232,12.665-28.232,28.231v46.45c0,4.143,3.358,7.5,7.5,7.5s7.5-3.357,7.5-7.5v-46.45
	c0-7.295,5.935-13.23,13.231-13.23h22.008v5.177c0,10.753,8.749,19.501,19.501,19.501h91.506c10.753,0,19.501-8.749,19.501-19.501
	v-5.177h22.008c7.295,0,13.23,5.935,13.23,13.23v404.024c0,7.295-5.934,13.23-13.23,13.23H235.612
	c-7.295,0-13.231-5.935-13.231-13.23V135.44C222.381,131.297,219.023,127.94,214.881,127.94z"/>
<path d="M231.119,452.681c0,5.979,4.865,10.846,10.846,10.846h20.071c5.979,0,10.846-4.865,10.846-10.846v-20.07
	c0-5.979-4.865-10.846-10.846-10.846h-20.071c-5.98,0-10.846,4.865-10.846,10.846L231.119,452.681L231.119,452.681z M246.12,436.766
	h11.76v11.76h-11.76L246.12,436.766L246.12,436.766z"/>
<path d="M278.37,452.681c0,5.979,4.865,10.846,10.846,10.846h20.069c5.98,0,10.847-4.865,10.847-10.846v-20.07
	c0-5.979-4.865-10.846-10.847-10.846h-20.069c-5.979,0-10.846,4.865-10.846,10.846V452.681z M293.371,436.766h11.76v11.76h-11.76
	V436.766z"/>
<path d="M325.619,452.681c0,5.979,4.865,10.846,10.847,10.846h20.069c5.98,0,10.847-4.865,10.847-10.846v-20.07
	c0-5.979-4.865-10.846-10.847-10.846h-20.069c-5.981,0-10.847,4.865-10.847,10.846V452.681z M340.62,436.766h11.761v11.76H340.62
	V436.766z"/>
<path d="M372.869,452.681c0,5.979,4.865,10.846,10.847,10.846h20.069c5.98,0,10.847-4.865,10.847-10.846v-20.07
	c0-5.979-4.865-10.846-10.847-10.846h-20.069c-5.98,0-10.847,4.865-10.847,10.846V452.681z M387.87,436.766h11.761v11.76H387.87
	V436.766z"/>
<path d="M241.965,125.82h20.071c5.979,0,10.846-4.865,10.846-10.847V94.902c0-5.979-4.865-10.846-10.846-10.846h-20.071
	c-5.98,0-10.846,4.865-10.846,10.846v20.07C231.119,120.953,235.984,125.82,241.965,125.82z M246.12,99.058h11.76v11.761h-11.76
	L246.12,99.058L246.12,99.058z"/>
<path d="M289.215,125.82h20.069c5.98,0,10.847-4.865,10.847-10.847V94.902c0-5.979-4.865-10.846-10.847-10.846h-20.069
	c-5.979,0-10.846,4.865-10.846,10.846v20.07C278.37,120.953,283.235,125.82,289.215,125.82z M293.371,99.058h11.76v11.761h-11.76
	V99.058z"/>
<path d="M336.464,125.82h20.069c5.98,0,10.847-4.865,10.847-10.847V94.902c0-5.979-4.865-10.846-10.847-10.846h-20.069
	c-5.981,0-10.847,4.865-10.847,10.846v20.07C325.619,120.953,330.484,125.82,336.464,125.82z M340.62,99.058h11.761v11.761H340.62
	V99.058z"/>
<path d="M383.714,125.82h20.069c5.98,0,10.847-4.865,10.847-10.847V94.902c0-5.979-4.865-10.846-10.847-10.846h-20.069
	c-5.98,0-10.847,4.865-10.847,10.846v20.07C372.869,120.953,377.734,125.82,383.714,125.82z M387.87,99.058h11.761v11.761H387.87
	V99.058z"/>
<path d="M231.119,162.689c0,5.98,4.865,10.846,10.846,10.846h20.071c5.979,0,10.846-4.865,10.846-10.846v-20.07
	c0-5.979-4.865-10.846-10.846-10.846h-20.071c-5.98,0-10.846,4.865-10.846,10.846L231.119,162.689L231.119,162.689z M246.12,146.774
	h11.76v11.76h-11.76L246.12,146.774L246.12,146.774z"/>
<path d="M278.37,162.689c0,5.98,4.865,10.846,10.846,10.846h20.069c5.98,0,10.847-4.865,10.847-10.846v-20.07
	c0-5.979-4.865-10.846-10.847-10.846h-20.069c-5.979,0-10.846,4.865-10.846,10.846V162.689z M293.371,146.774h11.76v11.76h-11.76
	V146.774z"/>
<path d="M325.619,162.689c0,5.98,4.865,10.846,10.847,10.846h20.069c5.98,0,10.847-4.865,10.847-10.846v-20.07
	c0-5.979-4.865-10.846-10.847-10.846h-20.069c-5.981,0-10.847,4.865-10.847,10.846V162.689z M340.62,146.774h11.761v11.76H340.62
	V146.774z"/>
<path d="M372.869,162.689c0,5.98,4.865,10.846,10.847,10.846h20.069c5.98,0,10.847-4.865,10.847-10.846v-20.07
	c0-5.979-4.865-10.846-10.847-10.846h-20.069c-5.98,0-10.847,4.865-10.847,10.846V162.689z M387.87,146.774h11.761v11.76H387.87
	V146.774z"/>
<path d="M231.119,211.026c0,5.979,4.865,10.846,10.846,10.846h20.071c5.979,0,10.846-4.865,10.846-10.846v-20.07
	c0-5.979-4.865-10.846-10.846-10.846h-20.071c-5.98,0-10.846,4.865-10.846,10.846L231.119,211.026L231.119,211.026z M246.12,195.111
	h11.76v11.76h-11.76L246.12,195.111L246.12,195.111z"/>
<path d="M278.37,211.026c0,5.979,4.865,10.846,10.846,10.846h20.069c5.98,0,10.847-4.865,10.847-10.846v-20.07
	c0-5.979-4.865-10.846-10.847-10.846h-20.069c-5.979,0-10.846,4.865-10.846,10.846V211.026z M293.371,195.111h11.76v11.76h-11.76
	V195.111z"/>
<path d="M325.619,211.026c0,5.979,4.865,10.846,10.847,10.846h20.069c5.98,0,10.847-4.865,10.847-10.846v-20.07
	c0-5.979-4.865-10.846-10.847-10.846h-20.069c-5.981,0-10.847,4.865-10.847,10.846V211.026z M340.62,195.111h11.761v11.76H340.62
	V195.111z"/>
<path d="M372.869,211.026c0,5.979,4.865,10.846,10.847,10.846h20.069c5.98,0,10.847-4.865,10.847-10.846v-20.07
	c0-5.979-4.865-10.846-10.847-10.846h-20.069c-5.98,0-10.847,4.865-10.847,10.846V211.026z M387.87,195.111h11.761v11.76H387.87
	V195.111z"/>
<path d="M231.119,258.741c0,5.979,4.865,10.846,10.846,10.846h20.071c5.979,0,10.846-4.865,10.846-10.846v-20.07
	c0-5.98-4.865-10.846-10.846-10.846h-20.071c-5.98,0-10.846,4.865-10.846,10.846L231.119,258.741L231.119,258.741z M246.12,242.826
	h11.76v11.76h-11.76L246.12,242.826L246.12,242.826z"/>
<path d="M278.37,258.741c0,5.979,4.865,10.846,10.846,10.846h20.069c5.98,0,10.847-4.865,10.847-10.846v-20.07
	c0-5.98-4.865-10.846-10.847-10.846h-20.069c-5.979,0-10.846,4.865-10.846,10.846V258.741z M293.371,242.826h11.76v11.76h-11.76
	V242.826z"/>
<path d="M325.619,258.741c0,5.979,4.865,10.846,10.847,10.846h20.069c5.98,0,10.847-4.865,10.847-10.846v-20.07
	c0-5.98-4.865-10.846-10.847-10.846h-20.069c-5.981,0-10.847,4.865-10.847,10.846V258.741z M340.62,242.826h11.761v11.76H340.62
	V242.826z"/>
<path d="M231.119,306.457c0,5.98,4.865,10.846,10.846,10.846h20.071c5.979,0,10.846-4.865,10.846-10.846v-20.07
	c0-5.98-4.865-10.846-10.846-10.846h-20.071c-5.98,0-10.846,4.865-10.846,10.846L231.119,306.457L231.119,306.457z M246.12,290.542
	h11.76v11.76h-11.76L246.12,290.542L246.12,290.542z"/>
<path d="M278.37,306.457c0,5.98,4.865,10.846,10.846,10.846h20.069c5.98,0,10.847-4.865,10.847-10.846v-20.07
	c0-5.98-4.865-10.846-10.847-10.846h-20.069c-5.979,0-10.846,4.865-10.846,10.846V306.457z M293.371,290.542h11.76v11.76h-11.76
	V290.542z"/>
<path d="M325.619,306.457c0,5.98,4.865,10.846,10.847,10.846h20.069c5.98,0,10.847-4.865,10.847-10.846v-20.07
	c0-5.98-4.865-10.846-10.847-10.846h-20.069c-5.981,0-10.847,4.865-10.847,10.846V306.457z M340.62,290.542h11.761v11.76H340.62
	V290.542z"/>
<path d="M372.869,258.741c0,5.979,4.865,10.846,10.847,10.846h20.069c5.98,0,10.847-4.865,10.847-10.846v-20.07
	c0-5.98-4.865-10.846-10.847-10.846h-20.069c-5.98,0-10.847,4.865-10.847,10.846V258.741z M387.87,242.826h11.761v11.76H387.87
	V242.826z"/>
<g>
</g>
<g>
</g>
<g>
</g>
<g>
</g>
<g>
</g>
<g>
</g>
<g>
</g>
<g>
</g>
<g>
</g>
<g>
</g>
<g>
</g>
<g>
</g>
<g>
</g>
<g>
</g>
<g>
</g>
</svg>
