<?xml version="1.0" encoding="iso-8859-1"?>
<!-- Generator: Adobe Illustrator 19.0.0, SVG Export Plug-In . SVG Version: 6.00 Build 0)  -->
<svg version="1.1" id="Capa_1" xmlns="http://www.w3.org/2000/svg" xmlns:xlink="http://www.w3.org/1999/xlink" x="0px" y="0px"
	 viewBox="0 0 496 496" style="enable-background:new 0 0 496 496;" xml:space="preserve">
<path style="fill:#ECECEC;" d="M176,104H40c-17.672,0-32,14.328-32,32v320c0,17.672,14.328,32,32,32h416c17.672,0,32-14.328,32-32
	V136c0-17.672-14.328-32-32-32H320H176z"/>
<path style="fill:#B6C1CE;" d="M456,472H40c-17.672,0-32-14.328-32-32v16c0,17.672,14.328,32,32,32h416c17.672,0,32-14.328,32-32
	v-16C488,457.672,473.672,472,456,472z"/>
<path style="fill:#D3A06C;" d="M240,304v-40c0-44.184-35.816-80-80-80l0,0c-44.184,0-80,35.816-80,80v40H240z"/>
<path style="fill:#B27946;" d="M160,184c-2.704,0-5.368,0.144-8,0.4c40.424,4.016,72,38.112,72,79.6v40h16v-40
	C240,219.816,204.184,184,160,184z"/>
<path style="fill:#92E0C0;" d="M184,384l51.304,10.264c17.624,3.528,31.8,16.6,36.736,33.88L280,456H40l7.96-27.856
	c4.936-17.28,19.112-30.36,36.736-33.88L136,384H184z"/>
<path style="fill:#48C397;" d="M248,456h32l-7.96-27.856c-4.936-17.28-19.112-30.352-36.736-33.88L184,384h-16l56.864,25.272
	c9.488,4.216,16.344,12.784,18.384,22.968L248,456z"/>
<g>
	<path style="fill:#F9E0A6;" d="M136,368v16c0,13.256,10.744,24,24,24l0,0c13.256,0,24-10.744,24-24v-16H136z"/>
	<path style="fill:#F9E0A6;" d="M208,280h8c13.256,0,24,10.744,24,24l0,0c0,13.256-10.744,24-24,24h-8V280z"/>
	<path style="fill:#F9E0A6;" d="M112,280h-8c-13.256,0-24,10.744-24,24l0,0c0,13.256,10.744,24,24,24h8V280z"/>
	<path style="fill:#F9E0A6;" d="M104,280v40c0,30.928,25.072,56,56,56l0,0c30.928,0,56-25.072,56-56v-40l0,0
		c-20.488,0-40.136-8.136-54.624-22.624L160,256l-1.376,1.376C144.136,271.864,124.488,280,104,280L104,280z"/>
</g>
<path style="fill:#EABD8C;" d="M200,320c0,28.208-20.872,51.472-48,55.36c2.616,0.376,5.28,0.64,8,0.64c30.928,0,56-25.072,56-56
	v-40c-5.424,0-10.776-0.608-16-1.712V320z"/>
<rect x="176" y="8" style="fill:#FEA82F;" width="144" height="144"/>
<rect x="176" y="136" style="fill:#FF8031;" width="144" height="16"/>
<rect x="208" y="8" style="fill:#FFEAA7;" width="80" height="144"/>
<rect x="208" y="136" style="fill:#FCD770;" width="80" height="16"/>
<path d="M236.872,386.416L192,377.44v-2.104c14.8-8.592,25.824-22.928,30.048-39.952C236.808,332.544,248,319.576,248,304v-40
	c0-48.52-39.48-88-88-88s-88,39.48-88,88v40c0,15.576,11.192,28.544,25.952,31.392c4.224,17.024,15.248,31.36,30.048,39.952v2.104
	l-44.864,8.976c-20.656,4.128-37.08,19.272-42.864,39.528L29.392,464h261.216l-10.872-38.056
	C273.944,405.688,257.52,390.536,236.872,386.416z M144,381.896c5.128,1.328,10.464,2.104,16,2.104s10.872-0.776,16-2.104V384
	c0,8.824-7.176,16-16,16s-16-7.176-16-16V381.896z M224,317.776v-27.552c4.76,2.776,8,7.88,8,13.776S228.76,315,224,317.776z
	 M160,192c39.696,0,72,32.304,72,72v12.448c-4.728-2.752-10.144-4.448-16-4.448c-18.496,0-35.888-7.2-48.968-20.272L160,244.672
	l-7.024,7.048C139.888,264.8,122.496,272,104,272c-5.856,0-11.272,1.696-16,4.448V264C88,224.304,120.304,192,160,192z M88,304
	c0-5.896,3.24-11,8-13.776v27.552C91.24,315,88,309.896,88,304z M112,320v-32.376c17.816-1.648,34.48-8.776,48-20.584
	c13.52,11.8,30.184,18.936,48,20.584V320c0,26.472-21.528,48-48,48S112,346.472,112,320z M230.248,448l-6.488-25.936l-15.52,3.872
	L213.752,448H106.248l5.512-22.064l-15.52-3.872L89.752,448H50.608l5.048-17.664c4.136-14.472,15.864-25.28,30.616-28.232
	l43.312-8.664C133.64,406.464,145.664,416,160,416s26.36-9.536,30.416-22.56l43.312,8.664c14.752,2.952,26.48,13.776,30.616,28.232
	L269.392,448H230.248z"/>
<path d="M456,96H328V0H168v96H40c-22.056,0-40,17.944-40,40v320c0,22.056,17.944,40,40,40h416c22.056,0,40-17.944,40-40V136
	C496,113.944,478.056,96,456,96z M312,144h-16v-32h-16v32h-64V16h64v80h16V16h16V144z M200,16v128h-16V16H200z M480,456
	c0,13.232-10.768,24-24,24H40c-13.232,0-24-10.768-24-24V136c0-13.232,10.768-24,24-24h128v32h-16v16h192v-16h-16v-32h128
	c13.232,0,24,10.768,24,24V456z"/>
<rect x="280" y="224" width="184" height="16"/>
<rect x="280" y="272" width="16" height="16"/>
<rect x="312" y="272" width="152" height="16"/>
<rect x="280" y="320" width="184" height="16"/>
<rect x="280" y="368" width="152" height="16"/>
<rect x="448" y="368" width="16" height="16"/>
<g>
</g>
<g>
</g>
<g>
</g>
<g>
</g>
<g>
</g>
<g>
</g>
<g>
</g>
<g>
</g>
<g>
</g>
<g>
</g>
<g>
</g>
<g>
</g>
<g>
</g>
<g>
</g>
<g>
</g>
</svg>
