<svg height="512pt" viewBox="0 -40 512.00013 512" width="512pt" xmlns="http://www.w3.org/2000/svg"><path d="m488.496094 290.238281-362.621094 131.984375c-12.621094 4.59375-26.574219-1.914062-31.167969-14.535156l-85.738281-235.566406c-4.59375-12.621094 1.914062-26.574219 14.535156-31.167969l362.621094-131.984375c12.617188-4.59375 26.574219 1.914062 31.167969 14.535156l85.738281 235.566406c4.59375 12.621094-1.914062 26.578126-14.535156 31.167969zm0 0" fill="#eeeeed"/><path d="m336.507812 27.027344-313.003906 113.925781c-2.953125 1.074219-5.566406 2.664063-7.785156 4.625v45.085937l63.617188 174.789063h202.511718l206.652344-75.214844c.289062-.105469.570312-.222656.851562-.335937v-68.417969l-70.777343-194.457031zm0 0" fill="#dfdfdd"/><path d="m387.5625 46.566406 77.863281 213.945313-341 124.105469-77.867187-213.945313zm0 0" fill="#77c09f"/><path d="m46.566406 170.679688 70.890625 194.773437h59.648438l288.328125-104.941406-77.871094-213.945313zm0 0" fill="#6eb394"/><path d="m445.480469 345.902344h-385.894531c-13.429688 0-24.316407-10.886719-24.316407-24.316406v-250.6875c0-13.429688 10.886719-24.320313 24.316407-24.320313h385.894531c13.429687 0 24.316406 10.890625 24.316406 24.320313v250.6875c0 13.429687-10.886719 24.316406-24.316406 24.316406zm0 0" fill="#eeeeed"/><path d="m71.09375 82.402344h362.882812v227.675781h-362.882812zm0 0" fill="#a2d5ec"/><path d="m201.132812 254.164062c-5.484374-15.0625-23.832031-22.214843-40.988281-15.972656-17.152343 6.242188-26.617187 23.515625-21.132812 38.582032 5.484375 15.066406 23.832031 22.214843 40.988281 15.972656 17.152344-6.242188 26.617188-23.515625 21.132812-38.582032zm0 0" fill="#ebcebe"/><path d="m353.589844 198.660156c5.484375 15.066406 23.835937 22.214844 40.988281 15.972656 17.15625-6.242187 26.617187-23.515624 21.132813-38.582031-5.480469-15.0625-23.832032-22.214843-40.988282-15.972656-17.152344 6.246094-26.613281 23.519531-21.132812 38.582031zm0 0" fill="#ebcebe"/><path d="m200.949219 310.078125h136.078125c45.980468-28.757813 68.289062-82.980469 50.597656-131.578125-20.628906-56.679688-87.835938-84.253906-150.113281-61.585938-62.277344 22.667969-96.042969 86.992188-75.410157 143.671876 7.546876 20.742187 21.34375 37.582031 38.847657 49.492187zm0 0" fill="#f8dccc"/><path d="m235.847656 112.351562c-64.695312 23.546876-99.824218 90.789063-78.3125 149.894532.71875 1.972656 1.492188 3.914062 2.320313 5.816406.433593.996094 1.675781 1.355469 2.578125.753906 17.554687-11.679687 18.578125-37.980468 17.464844-50.785156 31.332031-3.734375 67.539062-54.902344 70.625-59.5625 26.730468 19.503906 58.859374 14.304688 76.210937 10.03125 4.636719-1.140625 7.578125-5.730469 6.585937-10.398438-.761718-3.566406-1.933593-7.613281-3.425781-11.46875 12.851563 11.324219 38.113281 28.328126 60.34375 32.550782 1.332031.253906 2.425781-1.046875 1.964844-2.316406l-.011719-.03125c-21.515625-59.105469-91.648437-88.03125-156.34375-64.484376zm0 0" fill="#ad9386"/><path d="m154.652344 235.292969 15.5625 31.605469c1.050781 2.132812-.980469 4.480468-3.238282 3.742187-2.417968-.785156-5.0625.183594-6.398437 2.34375-1.945313 3.148437-5.796875 4.550781-9.308594 3.390625-2.414062-.796875-5.0625.160156-6.40625 2.316406-1.261719 2.015625-4.324219 1.523438-4.890625-.78125l-8.390625-34.21875zm0 0" fill="#f6c273"/><path d="m135.195312 258.4375c4.640626 1.445312 9.769532 1.441406 14.6875-.347656 4.917969-1.789063 8.851563-5.085938 11.476563-9.175782l-6.707031-13.621093-23.070313 8.398437zm0 0" fill="#e6b469"/><path d="m158.128906 236.484375c0 8.898437-7.210937 16.109375-16.109375 16.109375-8.894531 0-16.109375-7.210938-16.109375-16.109375s7.214844-16.109375 16.109375-16.109375c8.898438 0 16.109375 7.210938 16.109375 16.109375zm0 0" fill="#f8e47c"/><path d="m337.183594 82.402344h-39.683594l-163.171875 59.390625 17.484375 48.035156c2.683594 7.371094 11.035156 10.925781 18.207031 7.753906 17.894531-7.917969 50.492188-20.855469 75.042969-22.128906 8.785156-.453125 17.265625-3.539063 24.285156-8.839844 19.628906-14.804687 52.914063-25.851562 71.714844-31.285156 7.53125-2.175781 11.644531-10.273437 8.960938-17.640625zm0 0" fill="#495059"/><path d="m201.164062 137.796875 137.910157-50.195313-1.890625-5.199218h-39.683594l-163.167969 59.390625 17.484375 48.039062c2.679688 7.367188 11.03125 10.925781 18.199219 7.753907 10.753906-4.761719 26.820313-11.328126 43.257813-16.09375-7.488282-8.296876-13.445313-19.722657-17.964844-30.171876-2.3125-5.34375.386718-11.53125 5.855468-13.523437zm0 0" fill="#41464f"/><path d="m193.496094 82.402344-97.480469 35.480468c-7.230469 2.628907-10.960937 10.628907-8.328125 17.859376l2.632812 7.238281c2.632813 7.230469 10.628907 10.960937 17.863282 8.328125l189.316406-68.90625zm0 0" fill="#495059"/><path d="m337.984375 105.910156c-16.203125 4.371094-56.285156 16.355469-78.640625 33.222656-7.035156 5.308594-15.476562 8.382813-24.277344 8.839844-27.96875 1.449219-66.375 18.03125-81.601562 25.097656-3.566406 1.65625-7.789063-.105468-9.132813-3.800781l7.484375 20.558594c2.679688 7.371094 11.03125 10.925781 18.203125 7.753906 17.894531-7.917969 50.492188-20.855469 75.042969-22.128906 8.785156-.453125 17.265625-3.539063 24.289062-8.839844 19.625-14.804687 52.910157-25.851562 71.710938-31.285156 7.53125-2.175781 11.644531-10.273437 8.960938-17.640625l-7.480469-20.5625c1.34375 3.699219-.757813 7.757812-4.558594 8.785156zm0 0" fill="#f6c273"/><path d="m213.273438 181.492188c-6.429688-7.121094-11.722657-16.542969-15.953126-25.675782-18.066406 5.714844-34.9375 13.113282-43.855468 17.253906-3.566406 1.65625-7.789063-.105468-9.132813-3.800781l7.480469 20.558594c2.683594 7.371094 11.035156 10.925781 18.207031 7.753906 10.753907-4.757812 26.816407-11.328125 43.253907-16.089843zm0 0" fill="#e6b469"/><path d="m240.582031 260.890625c-4.074219-11.199219-18.78125-16.128906-32.847656-11.011719-14.066406 5.121094-22.164063 18.351563-18.085937 29.550782 4.078124 11.199218 18.785156 16.132812 32.847656 11.011718 14.066406-5.117187 22.164062-18.347656 18.085937-29.550781zm0 0" fill="#f8b8bd"/><path d="m327.695312 229.171875c4.078126 11.203125 18.78125 16.132813 32.847657 11.011719 14.066406-5.117188 22.164062-18.347656 18.085937-29.550782-4.074218-11.199218-18.78125-16.128906-32.847656-11.011718-14.066406 5.121094-22.164062 18.351562-18.085938 29.550781zm0 0" fill="#f8b8bd"/><path d="m285.183594 247.902344c-10.191406 3.707031-21.457032-1.546875-25.164063-11.734375l-4.882812-13.414063c-1.011719-2.785156.421875-5.859375 3.203125-6.871094l26.828125-9.765624c2.78125-1.011719 5.855469.421874 6.871093 3.203124l4.882813 13.414063c3.707031 10.191406-1.546875 21.457031-11.738281 25.167969zm0 0" fill="#495059"/><path d="m299.085938 206.757812c-2.425782-6.664062-9.816407-10.113281-16.484376-7.6875l-26.828124 9.765626c-6.664063 2.425781-10.109376 9.816406-7.6875 16.480468l4.882812 13.414063c2.480469 6.8125 7.464844 12.25 14.03125 15.3125 3.648438 1.703125 7.542969 2.558593 11.453125 2.558593 3.128906 0 6.269531-.550781 9.296875-1.652343 14.058594-5.117188 21.335938-20.71875 16.21875-34.777344zm-16.46875 34.097657c-6.289063 2.285156-13.261719-.96875-15.550782-7.253907l-4.152344-11.402343 22.808594-8.300781 4.148438 11.402343c2.289062 6.289063-.964844 13.265625-7.253906 15.554688zm227.460937 15.652343-32.777344-90.066406v-46.050781c0-4.140625-3.359375-7.5-7.503906-7.5-4.140625 0-7.5 3.359375-7.5 7.5v201.191406c0 9.273438-7.542969 16.820313-16.816406 16.820313h-385.894531c-9.269532 0-16.816407-7.546875-16.816407-16.820313v-250.683593c0-9.273438 7.546875-16.820313 16.816407-16.820313h366.078124c.011719 0 .019532.003906.027344.003906.015625 0 .03125-.003906.046875-.003906h19.742188c9.273437 0 16.816406 7.546875 16.816406 16.820313v14.71875c0 4.140624 3.359375 7.5 7.5 7.5 4.144531 0 7.503906-3.359376 7.503906-7.5v-14.71875c0-17.546876-14.273437-31.820313-31.820312-31.820313h-14.539063l-6.601562-18.140625c-6-16.484375-24.292969-25.019531-40.78125-19.015625l-102.09375 37.15625h-221.878906c-17.542969 0-31.816407 14.273437-31.816407 31.816406v60.519531l-6.832031 2.488282c-16.488281 6-25.015625 24.296875-19.015625 40.78125l25.847656 71.023437v75.875c0 17.546875 14.273438 31.820313 31.820313 31.820313h7.378906l20.691406 56.851562c4.699219 12.90625 16.929688 20.9375 29.933594 20.9375 3.601562 0 7.269531-.617187 10.847656-1.921875l15.34375-5.582031c3.890625-1.417969 5.898438-5.722656 4.480469-9.613281-1.417969-3.894531-5.722656-5.902344-9.613281-4.484375l-15.339844 5.585937c-8.714844 3.171875-18.386719-1.335937-21.554688-10.050781l-18.828124-51.722656h22.160156l12.300781 33.789062c1.105469 3.042969 3.984375 4.933594 7.046875 4.933594.851562 0 1.71875-.144531 2.5625-.453125l105.148438-38.269531h60.882812l-123.582031 44.980468c-3.894531 1.414063-5.898438 5.71875-4.484375 9.613282 1.109375 3.042968 3.984375 4.9375 7.050781 4.9375.851563 0 1.714844-.148438 2.5625-.457032l162.3125-59.074218h108.589844c17.542969 0 31.816406-14.273438 31.816406-31.816406v-19.289063l13.765625-5.007813c16.488281-6.003906 25.015625-24.296874 19.015625-40.78125zm-121.390625-240.492187c8.714844-3.171875 18.382812 1.335937 21.554688 10.050781l4.738281 13.011719h-89.65625zm-360.917969 185.832031-11.753906-32.292968c-3.171875-8.714844 1.335937-18.386719 10.050781-21.554688l1.703125-.621094zm101.148438 173.164063-7.863281-21.609375h67.238281zm357.015625-91.820313-8.632813 3.140625v-76.03125l18.683594 51.335938c3.171875 8.714843-1.339844 18.382812-10.050781 21.554687zm-414.839844-208.289062c-4.140625 0-7.5 3.359375-7.5 7.5v227.675781c0 4.140625 3.359375 7.5 7.5 7.5h362.882812c4.140626 0 7.5-3.359375 7.5-7.5v-227.675781c0-4.140625-3.359374-7.5-7.5-7.5zm260.835938 15 11.046874 30.347656c.355469.980469.453126 2 .296876 2.992188-.003907.023437-.007813.046874-.011719.070312-.097657.597656-.292969 1.183594-.574219 1.746094-.765625 1.503906-2.082031 2.59375-3.707031 3.0625-18.8125 5.4375-53.453125 16.894531-74.148438 32.507812-5.855469 4.417969-12.828125 6.953125-20.15625 7.335938-25.886719 1.339844-59.789062 14.835937-77.691406 22.757812-1.546875.683594-3.257813.695313-4.8125.035156-1.554687-.664062-2.730469-1.902343-3.308594-3.496093l-14.921875-40.988281 154.882813-56.371094zm21.515624 45.878906c11.4375 9.050781 20.609376 20.199219 27.046876 32.894531-14.925782-5.40625-30.855469-15.46875-42.152344-24.722656 1.691406-.511719 3.304687-.988281 4.804687-1.421875 4.050781-1.167969 7.632813-3.554688 10.300781-6.75zm-28.503906 25.4375c-13.945312 3.433594-26.707031 4.488281-38.152344 3.199219 11.203126-6.117188 24.277344-11.34375 36.011719-15.421875.035157.113281.054688.230468.097657.34375 1.269531 3.28125 2.367187 6.949218 3.082031 10.324218.148437.679688-.320313 1.378907-1.039063 1.554688zm-152.515625 57.464844c.777344 8.914062.097657 19.910156-3.28125 29.0625l-3.792969-7.699219c.585938-3.792969.257813-7.78125-1.144531-11.636719-1.183593-3.25-3.015625-6.078125-5.289062-8.402344.296875-4.714843.945312-9.433593 1.90625-14.121093 1.226562.21875 2.46875.347656 3.710937.347656 2.90625 0 5.816406-.597656 8.519532-1.792969 10.238281-4.535156 25.945312-10.984375 41.957031-15.652344-13.601563 13.019532-26.03125 20.609376-36.003907 21.796876-4.019531.480468-6.933593 4.0625-6.582031 8.097656zm-33.347656 9.710937c.96875-.351562 1.957031-.519531 2.933594-.519531 1.742187 0 3.429687.535156 4.847656 1.496094.027344.019531.058594.039062.089844.0625 1.402343.976562 2.53125 2.378906 3.160156 4.105468 1.625 4.460938-.683594 9.410157-5.144531 11.035157-4.457032 1.621093-9.410156-.683594-11.035156-5.148438-1.621094-4.457031.683593-9.410156 5.148437-11.03125zm-17.894531-73.835937 8.664062-3.152344 14.917969 40.988281c.648437 1.777344 1.550781 3.433594 2.632813 4.957031-1.324219 5.175782-2.285157 10.410157-2.894532 15.660157-.695312-.074219-1.390625-.117188-2.089844-.128907zm28.914062 104.113281c2.234375-.816406 4.273438-1.9375 6.082032-3.296875l4.164062 8.453125c-2.476562 1.015625-4.648438 2.796875-6.144531 5.210937-.121094.199219-.359375.285157-.582031.210938-2.699219-.890625-5.507813-.859375-8.054688-.039062l-2.25-9.171876c2.265625-.121093 4.546875-.554687 6.785156-1.367187zm13.34375 22.21875c1.328125 2.25 2.738282 4.453125 4.222656 6.605469-4.738281.050781-9.226562-1.09375-12.953124-3.242188 3.1875-.1875 6.234374-1.363281 8.730468-3.363281zm91.523438-190.988281-149.347656 54.355468c-3.332032 1.214844-7.035157-.511718-8.246094-3.84375l-2.636719-7.238281c-.585937-1.613281-.511719-3.363281.214844-4.917969.726562-1.558593 2.015625-2.742187 3.632812-3.328124l96.234375-35.027344zm-176.371094 212.675781v-212.675781h72.363281l-57.503906 20.933594c-5.382813 1.957031-9.679687 5.894531-12.097656 11.082031s-2.671875 11.011719-.714844 16.390625l2.632813 7.238281c3.164062 8.695313 11.40625 14.105469 20.164062 14.105469 1.171875 0 2.351562-.101563 3.527344-.300782l21.136718 58.070313c-8.269531 6.042969-11.941406 17.042969-8.265624 27.140625 1.402343 3.847656 3.714843 7.097656 6.597656 9.628906l3.550781 14.476563c.078125 3.664062.742187 7.25 1.984375 10.667969 5.242188 14.398437 19.628906 23.152343 35.464844 23.152343 3.707031 0 7.492187-.484375 11.257812-1.484375.503906.527344 1.003906 1.058594 1.519532 1.574219zm256.246094 0h-131.535156c-10.988282-7.851563-20.140626-17.8125-26.839844-29.136719 1.664062-2.683594 1.972656-5.992187.835937-8.96875 9.113281-13.085937 10.511719-30.183594 10.386719-40.414062 19.464844-5.628906 38.972656-24.355469 53.023438-40.726563 1.613281-.175781 3.195312-.308593 4.742187-.390625 8.308594-.429687 16.285156-2.828125 23.386719-6.992187 17.238281 5.398437 37.292968 5.347656 59.6875-.164063 6.007812-1.480468 10.414062-6.015625 11.921875-11.550781 11.613281 7.996094 26.542969 16.410156 41.414062 20.644531 3.03125 9.566406 4.472657 19.40625 4.335938 29.316406-.042969.402344-.046875.808594-.023438 1.21875-.300781 11.238282-2.621093 22.550782-6.980469 33.636719-8.429687 21.441407-24.136718 40.375-44.355468 53.527344zm91.636718 0h-67.085937c14.9375-13.390625 26.636719-29.902344 33.765625-48.035156 4.394531-11.183594 6.976562-22.796875 7.738281-34.410157 8.300781-3.882812 15.074219-10.121093 19.316407-17.871093 5.042968-9.207031 5.949218-19.421875 2.546874-28.765625-5.164062-14.195313-19.425781-23.257813-35.640624-23.15625-7.621094-11.421875-17.351563-21.460938-28.875-29.726563-.152344-1.863281-.523438-3.710937-1.167969-5.492187l-9.179688-25.21875h78.582031zm-27.238281-128.304687c-.917969-2.523438-1.9375-4.996094-3.023437-7.429688 5.835937 2.089844 10.433594 6.246094 12.449218 11.78125 1.902344 5.230469 1.332032 11.0625-1.609374 16.429688-1.597657 2.917968-3.785157 5.5-6.417969 7.65625-.59375-6.363282-1.738281-12.65625-3.445313-18.820313.136719-.140625.277344-.277344.40625-.429687 2.152344-2.527344 2.785156-6.039063 1.640625-9.1875zm-55.980469 9.746093c-1.417968-3.894531-5.722656-5.902343-9.613281-4.484375-3.894531 1.417969-5.902343 5.722656-4.484375 9.613282l3.980469 10.933593c1.109375 3.042969 3.984375 4.9375 7.046875 4.9375.851562 0 1.71875-.148437 2.566406-.457031 3.890625-1.414062 5.898438-5.71875 4.480469-9.613281zm-129.527343 47.144531c-1.417969-3.894531-5.722657-5.902343-9.613281-4.484374-3.890626 1.417968-5.898438 5.722656-4.480469 9.613281l3.976562 10.929687c1.109375 3.046875 3.984375 4.9375 7.050781 4.9375.851563 0 1.714844-.144531 2.5625-.453125 3.894532-1.417969 5.898438-5.722656 4.484376-9.613281zm0 0"/></svg>