<?xml version="1.0" encoding="iso-8859-1"?>
<!-- Generator: Adobe Illustrator 19.0.0, SVG Export Plug-In . SVG Version: 6.00 Build 0)  -->
<svg version="1.1" id="Capa_1" xmlns="http://www.w3.org/2000/svg" xmlns:xlink="http://www.w3.org/1999/xlink" x="0px" y="0px"
	 viewBox="0 0 480 480" style="enable-background:new 0 0 480 480;" xml:space="preserve">
<rect x="320" y="244" style="fill:#FE946F;" width="64" height="24"/>
<path style="fill:#FFD422;" d="M296,236h-40v-56c0-53.019,42.981-96,96-96h0c53.019,0,96,42.981,96,96v56h-40H296z"/>
<g>
	<path style="fill:#FE946F;" d="M56,220H40c-8.837,0-16-7.163-16-16v0c0-8.837,7.163-16,16-16h16V220z"/>
	<path style="fill:#FE946F;" d="M184,220h16c8.837,0,16-7.163,16-16v0c0-8.837-7.163-16-16-16h-16V220z"/>
</g>
<path style="fill:#806749;" d="M120,84c-35.346,0-64,28.654-64,64v16h16c35.346,0,64-28.654,64-64c0,29.811,20.411,54.788,48,61.902
	V148C184,112.654,155.346,84,120,84z"/>
<path style="fill:#FFB398;" d="M136,100c0,35.346-28.654,64-64,64H56v104h128V161.902C156.411,154.788,136,129.811,136,100z"/>
<g>
	<rect x="80" y="172" style="fill:#FE946F;" width="16" height="16"/>
	<rect x="144" y="172" style="fill:#FE946F;" width="16" height="16"/>
</g>
<rect x="112" y="172" style="fill:#EF7150;" width="16" height="32"/>
<path style="fill:#FE946F;" d="M120,244c-23.477,0-32-19.137-32-32h16h-8l8-0.059c0.059,3.766,1.387,16.059,16,16.059
	c15.23,0,16-13.328,16-16h16C152,224.863,143.477,244,120,244z"/>
<path style="fill:#FFB398;" d="M416,164v40c0,35.346-28.654,64-64,64h0c-35.346,0-64-28.654-64-64v-40l48,0l16-32l16,32H416z"/>
<g>
	<rect x="312" y="172" style="fill:#FE946F;" width="16" height="16"/>
	<rect x="376" y="172" style="fill:#FE946F;" width="16" height="16"/>
</g>
<rect x="344" y="172" style="fill:#EF7150;" width="16" height="32"/>
<path style="fill:#FE946F;" d="M352,244c-23.477,0-32-19.137-32-32h16h-8l8-0.059c0.059,3.766,1.387,16.059,16,16.059
	c15.23,0,16-13.328,16-16h16C384,224.863,375.477,244,352,244z"/>
<path style="fill:#5AAAE7;" d="M8,404V300c0-17.673,14.327-32,32-32h160c17.673,0,32,14.327,32,32v104H8z"/>
<g>
	<rect x="48" y="324" style="fill:#FFD422;" width="16" height="80"/>
	<rect x="176" y="324" style="fill:#FFD422;" width="16" height="80"/>
</g>
<path style="fill:#F072AE;" d="M232,404V300c0-17.673,14.327-32,32-32h176c17.673,0,32,14.327,32,32v104H232z"/>
<g>
	<rect x="272" y="324" style="fill:#ED539D;" width="16" height="80"/>
	<rect x="416" y="324" style="fill:#ED539D;" width="16" height="80"/>
</g>
<rect x="8" y="356" style="fill:#FFD422;" width="224" height="16"/>
<rect x="232" y="356" style="fill:#ED539D;" width="240" height="16"/>
<polygon style="fill:#FFD422;" points="88,268 120,300 152,268 "/>
<g>
	<circle style="fill:#F40E34;" cx="404" cy="208" r="20"/>
	<circle style="fill:#F40E34;" cx="300" cy="208" r="20"/>
	<circle style="fill:#F40E34;" cx="172" cy="208" r="20"/>
	<circle style="fill:#F40E34;" cx="68" cy="208" r="20"/>
</g>
<path style="fill:#EBE5DD;" d="M352,300L352,300c-17.673,0-32-14.327-32-32v0h64v0C384,285.673,369.673,300,352,300z"/>
<g>
	<path style="fill:#FFFFFF;" d="M280,212h-16v-32c0-48.523,39.477-88,88-88v16c-39.699,0-72,32.301-72,72V212z"/>
	<rect x="368" y="92" style="fill:#FFFFFF;" width="16" height="16"/>
	<path style="fill:#FFFFFF;" d="M88,148H72v-19.898C72,108.195,88.195,92,108.102,92v16C97.016,108,88,117.016,88,128.102V148z"/>
	<rect x="120" y="92" style="fill:#FFFFFF;" width="16" height="16"/>
</g>
<rect x="80" y="172" width="16" height="16"/>
<rect x="144" y="172" width="16" height="16"/>
<rect x="112" y="172" width="16" height="32"/>
<path d="M120,228c-14.613,0-15.941-12.293-16-16.059L96,212h-8c0,12.863,8.523,32,32,32s32-19.137,32-32h-16
	C136,214.672,135.23,228,120,228z"/>
<rect x="344" y="172" width="16" height="32"/>
<path d="M352,228c-14.613,0-15.941-12.293-16-16.059L328,212h-8c0,12.863,8.523,32,32,32s32-19.137,32-32h-16
	C368,214.672,367.23,228,352,228z"/>
<path d="M440,260h-42.847c5.652-4.566,10.613-9.951,14.671-16H448c4.418,0,8-3.582,8-8v-56c0-57.348-46.652-104-104-104
	s-104,46.652-104,104v56c0,4.418,3.582,8,8,8h36.175c4.058,6.049,9.019,11.434,14.671,16H264c-13.13,0-24.702,6.446-32,16.248
	C224.702,266.446,213.13,260,200,260h-8v-32h8c13.234,0,24-10.766,24-24s-10.766-24-24-24h-8v-8.472c2.63,0.292,5.293,0.472,8,0.472
	h8v-16h-8c-2.723,0-5.38-0.261-8-0.639V148c0-39.699-32.301-72-72-72s-72,32.301-72,72v8H32v16h16v8h-8c-13.234,0-24,10.766-24,24
	s10.766,24,24,24h8v32h-8c-22.055,0-40,17.945-40,40v104h8h8h32h16h112h16h32h16h32h16h128h16h32h8h8V300
	C480,277.945,462.055,260,440,260z M264,228v-48c0-48.523,39.477-88,88-88s88,39.477,88,88v48h-20.201
	c2.671-7.52,4.201-15.576,4.201-24v-40c0-4.418-3.582-8-8-8h-43.055l-13.789-27.578c-2.711-5.422-11.602-5.422-14.313,0L331.055,156
	H288c-4.418,0-8,3.582-8,8v40c0,8.424,1.53,16.48,4.201,24H264z M296,204v-32h16v16h16v-16h8c3.031,0,5.801-1.711,7.156-4.422
	L352,149.887l8.844,17.691c1.355,2.711,4.125,4.422,7.156,4.422h8v16h16v-16h16v32c0,30.879-25.121,56-56,56S296,234.879,296,204z
	 M264,276h176c13.234,0,24,10.766,24,24v56h-32v-32h-16v32H288v-32h-16v32h-32v-56C240,286.766,250.766,276,264,276z M200,196
	c4.41,0,8,3.59,8,8s-3.59,8-8,8h-8v-16H200z M64,148c0-30.879,25.121-56,56-56s56,25.121,56,56v2.52
	c-18.886-9.01-32-28.237-32-50.52h-16c0,30.879-25.121,56-56,56h-8V148z M40,212c-4.41,0-8-3.59-8-8s3.59-8,8-8h8v16H40z M64,172h8
	c27.868,0,52.038-15.948,64-39.167c8.346,16.2,22.644,28.801,40,34.966V260H64V172z M132.688,276L120,288.688L107.313,276H132.688z
	 M40,276h16h28.688l29.656,29.656c1.563,1.563,3.609,2.344,5.656,2.344s4.094-0.781,5.656-2.344L155.313,276H184h16
	c13.234,0,24,10.766,24,24v56h-32v-32h-16v32H64v-32H48v32H16v-56C16,286.766,26.766,276,40,276z M16,388v-16h32v16H16z M64,388v-16
	h112v16H64z M192,388v-16h32v16H192z M240,388v-16h32v16H240z M288,388v-16h128v16H288z M432,388v-16h32v16H432z"/>
<g>
</g>
<g>
</g>
<g>
</g>
<g>
</g>
<g>
</g>
<g>
</g>
<g>
</g>
<g>
</g>
<g>
</g>
<g>
</g>
<g>
</g>
<g>
</g>
<g>
</g>
<g>
</g>
<g>
</g>
</svg>
