<svg id="Layer_3" enable-background="new 0 0 64 64" height="512" viewBox="0 0 64 64" width="512" xmlns="http://www.w3.org/2000/svg"><g><g><path d="m2 2h60v36h-60z" fill="#d5cec2"/></g><g><path d="m2 38h31.08c2.185-4.702 3.413-9.939 3.413-15.465 0-7.606-2.311-14.672-6.269-20.535h-28.224z" fill="#e7e4dd"/></g><g><path d="m8 53h-6v-16.586c0-.905.36-1.774 1-2.414.64-.64 1.509-1 2.414-1h9.586l-4 4 7 5 7-5-2-2 11-11 5 5-10 10v23h-21z" fill="#f8cf6a"/></g><g><path d="m34 24-11 11 2 2-7 5-7-5 4-4h-9.586c-.905 0-1.774.36-2.414 1s-1 1.509-1 2.414v16.586h6v5.339c8.506-1.953 15.884-6.852 21-13.573v-5.766l5.961-5.961c.646-2.169 1.105-4.42 1.341-6.737z" fill="#f7d881"/></g><g><path d="m4 53v5l4 3v-8z" fill="#fadfb2"/></g><g><path d="m38 28 4.5-4.5c.32-.32.5-.754.5-1.207v-.586c0-.453-.18-.887-.5-1.207-.32-.32-.754-.5-1.207-.5h-.586c-.453 0-.887.18-1.207.5l-4.5 4.5z" fill="#fadfb2"/></g><g><path d="m21 33 4 4-7 5-7-5 4-4z" fill="#f19846"/></g><g><path d="m15 29v4c0 1.657 1.343 3 3 3 1.657 0 3-1.343 3-3v-4z" fill="#efbe9a"/></g><g><path d="m10 12v6h-.004c-1.103.001-1.996.895-1.996 1.998 0 1.105.895 2.001 2 2.002 0 4.418 3.582 8 8 8 4.418 0 8-3.582 8-8 1.104.001 2-.894 2-1.998v-.004c0-1.104-.896-1.999-2-1.998v-6z" fill="#efbe9a"/></g><g><path d="m8 14h6l3-2 1 2h10c0-4.418-3.582-8-8-8h-4c-4.418 0-8 3.582-8 8z" fill="#956346"/></g><g><path d="m18 31c-4.679 0-8.535-3.589-8.961-8.158-1.185-.403-2.039-1.526-2.039-2.844 0-1.303.836-2.415 2-2.827v-3.171h2v4c0 .553-.447 1-1 1-.553.001-1 .448-1 .998 0 .552.449 1.001 1.001 1.002s.999.448.999 1c0 3.859 3.141 7 7 7s7-3.141 7-7c0-.266.105-.52.293-.707s.442-.293.707-.293h.001.001c.267 0 .517-.104.705-.292.189-.188.293-.439.293-.706 0-.271-.104-.521-.293-.71-.188-.188-.438-.292-.705-.292h-.001-.001c-.265 0-.52-.105-.707-.293s-.293-.441-.293-.707v-4h2v3.169c.417.147.799.387 1.121.708.567.566.879 1.319.879 2.121 0 .806-.312 1.559-.879 2.125-.332.332-.729.576-1.16.721-.427 4.568-4.283 8.156-8.961 8.156z"/></g><g><path d="m28 15h-10c-.379 0-.725-.214-.895-.553l-.493-.987-2.058 1.372c-.163.109-.357.168-.554.168h-6c-.553 0-1-.447-1-1 0-4.963 4.037-9 9-9h4c4.963 0 9 4.037 9 9 0 .553-.447 1-1 1zm-9.382-2h8.311c-.487-3.388-3.408-6-6.929-6h-4c-3.521 0-6.442 2.612-6.929 6h4.626l2.748-1.832c.239-.158.535-.207.812-.135.277.074.51.263.638.52z"/></g><g><path d="m18 37c-2.206 0-4-1.794-4-4v-3h2v3c0 1.103.897 2 2 2s2-.897 2-2v-3h2v3c0 2.206-1.794 4-4 4z"/></g><g><path d="m8 54h-6c-.553 0-1-.447-1-1v-16.586c0-1.179.459-2.287 1.293-3.121s1.942-1.293 3.121-1.293h9.586c.404 0 .77.243.924.617.155.374.069.804-.217 1.09l-3.165 3.165 5.458 3.899 5.458-3.899-3.165-3.165 1.414-1.414 4 4c.208.208.313.496.29.789-.024.293-.177.561-.416.731l-7 5c-.348.248-.814.248-1.162 0l-7-5c-.239-.171-.392-.438-.416-.731-.023-.293.082-.581.29-.789l2.293-2.293h-7.172c-.645 0-1.251.251-1.707.707s-.707 1.063-.707 1.707v15.586h4v-9h2v10c0 .553-.447 1-1 1z"/></g><g><path d="m17 36h2v26h-2z"/></g><g><path d="m13 17h2v2h-2z"/></g><g><path d="m21 17h2v2h-2z"/></g><g><path d="m18 27c-1.81 0-3.483-.982-4.368-2.564l1.746-.977c.531.95 1.536 1.541 2.622 1.541s2.091-.59 2.621-1.539l1.746.975c-.884 1.582-2.556 2.564-4.367 2.564z"/></g><g><path d="m62 39h-32v-2h31v-34h-58v33h-2v-34c0-.553.447-1 1-1h60c.553 0 1 .447 1 1v36c0 .553-.447 1-1 1z"/></g><g><path d="m7.4 61.8-4-3c-.252-.189-.4-.486-.4-.8v-5h2v4.5l3.6 2.7z"/></g><g><path d="m29 63h-21c-.553 0-1-.447-1-1v-9h2v8h19v-22c0-.266.105-.52.293-.707l9.293-9.293-3.586-3.586-10.293 10.293-1.414-1.414 11-11c.391-.391 1.023-.391 1.414 0l5 5c.391.391.391 1.023 0 1.414l-9.707 9.707v22.586c0 .553-.447 1-1 1z"/></g><g><path d="m38.707 28.707-1.414-1.414 4.5-4.5c.134-.134.207-.312.207-.5v-.586c0-.188-.073-.366-.207-.5s-.312-.207-.5-.207h-.586c-.188 0-.366.073-.5.207l-4.5 4.5-1.414-1.414 4.5-4.5c.512-.512 1.191-.793 1.914-.793h.586c.723 0 1.402.281 1.914.793s.793 1.191.793 1.914v.586c0 .723-.281 1.402-.793 1.914z"/></g><g><path d="m40.515 13h16.971v2h-16.971z" transform="matrix(.707 -.707 .707 .707 4.452 38.749)"/></g></g></svg>